G04 #@! TF.FileFunction,Legend,Bot*
%FSLAX46Y46*%
G04 Gerber Fmt 4.6, Leading zero omitted, Abs format (unit mm)*
G04 Created by KiCad (PCBNEW 4.0.2-stable) date 14.06.2016 13:49:58*
%MOMM*%
G01*
G04 APERTURE LIST*
%ADD10C,0.100000*%
%ADD11C,0.300000*%
%ADD12C,0.150000*%
%ADD13C,0.381000*%
%ADD14C,0.002540*%
%ADD15C,0.425000*%
%ADD16C,0.500000*%
%ADD17C,0.010000*%
%ADD18C,0.304800*%
G04 APERTURE END LIST*
D10*
D11*
X164285713Y-79545571D02*
X164785713Y-78831286D01*
X165142856Y-79545571D02*
X165142856Y-78045571D01*
X164571428Y-78045571D01*
X164428570Y-78117000D01*
X164357142Y-78188429D01*
X164285713Y-78331286D01*
X164285713Y-78545571D01*
X164357142Y-78688429D01*
X164428570Y-78759857D01*
X164571428Y-78831286D01*
X165142856Y-78831286D01*
X163642856Y-79545571D02*
X163642856Y-78045571D01*
X163285713Y-78045571D01*
X163071428Y-78117000D01*
X162928570Y-78259857D01*
X162857142Y-78402714D01*
X162785713Y-78688429D01*
X162785713Y-78902714D01*
X162857142Y-79188429D01*
X162928570Y-79331286D01*
X163071428Y-79474143D01*
X163285713Y-79545571D01*
X163642856Y-79545571D01*
X161285713Y-79402714D02*
X161357142Y-79474143D01*
X161571428Y-79545571D01*
X161714285Y-79545571D01*
X161928570Y-79474143D01*
X162071428Y-79331286D01*
X162142856Y-79188429D01*
X162214285Y-78902714D01*
X162214285Y-78688429D01*
X162142856Y-78402714D01*
X162071428Y-78259857D01*
X161928570Y-78117000D01*
X161714285Y-78045571D01*
X161571428Y-78045571D01*
X161357142Y-78117000D01*
X161285713Y-78188429D01*
X159857142Y-79545571D02*
X160714285Y-79545571D01*
X160285713Y-79545571D02*
X160285713Y-78045571D01*
X160428570Y-78259857D01*
X160571428Y-78402714D01*
X160714285Y-78474143D01*
X159214285Y-78974143D02*
X158071428Y-78974143D01*
X157071428Y-78045571D02*
X156928571Y-78045571D01*
X156785714Y-78117000D01*
X156714285Y-78188429D01*
X156642856Y-78331286D01*
X156571428Y-78617000D01*
X156571428Y-78974143D01*
X156642856Y-79259857D01*
X156714285Y-79402714D01*
X156785714Y-79474143D01*
X156928571Y-79545571D01*
X157071428Y-79545571D01*
X157214285Y-79474143D01*
X157285714Y-79402714D01*
X157357142Y-79259857D01*
X157428571Y-78974143D01*
X157428571Y-78617000D01*
X157357142Y-78331286D01*
X157285714Y-78188429D01*
X157214285Y-78117000D01*
X157071428Y-78045571D01*
X155642857Y-78045571D02*
X155500000Y-78045571D01*
X155357143Y-78117000D01*
X155285714Y-78188429D01*
X155214285Y-78331286D01*
X155142857Y-78617000D01*
X155142857Y-78974143D01*
X155214285Y-79259857D01*
X155285714Y-79402714D01*
X155357143Y-79474143D01*
X155500000Y-79545571D01*
X155642857Y-79545571D01*
X155785714Y-79474143D01*
X155857143Y-79402714D01*
X155928571Y-79259857D01*
X156000000Y-78974143D01*
X156000000Y-78617000D01*
X155928571Y-78331286D01*
X155857143Y-78188429D01*
X155785714Y-78117000D01*
X155642857Y-78045571D01*
X154214286Y-78045571D02*
X154071429Y-78045571D01*
X153928572Y-78117000D01*
X153857143Y-78188429D01*
X153785714Y-78331286D01*
X153714286Y-78617000D01*
X153714286Y-78974143D01*
X153785714Y-79259857D01*
X153857143Y-79402714D01*
X153928572Y-79474143D01*
X154071429Y-79545571D01*
X154214286Y-79545571D01*
X154357143Y-79474143D01*
X154428572Y-79402714D01*
X154500000Y-79259857D01*
X154571429Y-78974143D01*
X154571429Y-78617000D01*
X154500000Y-78331286D01*
X154428572Y-78188429D01*
X154357143Y-78117000D01*
X154214286Y-78045571D01*
X153000001Y-79545571D02*
X152714286Y-79545571D01*
X152571429Y-79474143D01*
X152500001Y-79402714D01*
X152357143Y-79188429D01*
X152285715Y-78902714D01*
X152285715Y-78331286D01*
X152357143Y-78188429D01*
X152428572Y-78117000D01*
X152571429Y-78045571D01*
X152857143Y-78045571D01*
X153000001Y-78117000D01*
X153071429Y-78188429D01*
X153142858Y-78331286D01*
X153142858Y-78688429D01*
X153071429Y-78831286D01*
X153000001Y-78902714D01*
X152857143Y-78974143D01*
X152571429Y-78974143D01*
X152428572Y-78902714D01*
X152357143Y-78831286D01*
X152285715Y-78688429D01*
X133702822Y-93715201D02*
X132894700Y-94523323D01*
X135671322Y-91873701D02*
X134863200Y-92681823D01*
X135671322Y-92681822D02*
X134863200Y-91873700D01*
D12*
X132469000Y-96559000D02*
X133469000Y-96559000D01*
X133469000Y-98259000D02*
X132469000Y-98259000D01*
X132196000Y-104699000D02*
X133996000Y-104699000D01*
X132196000Y-107899000D02*
X133996000Y-107899000D01*
X141986000Y-117983000D02*
X147066000Y-117983000D01*
X141986000Y-122428000D02*
X147066000Y-122428000D01*
X147066000Y-116078000D02*
X141986000Y-116078000D01*
X147066000Y-116078000D02*
X147066000Y-122428000D01*
X141986000Y-116078000D02*
X141986000Y-122428000D01*
X120352820Y-97322640D02*
X120352820Y-89621360D01*
X119352060Y-97322640D02*
X119352060Y-89621360D01*
X119352060Y-89621360D02*
X128551940Y-89621360D01*
X128551940Y-89621360D02*
X128551940Y-97322640D01*
X128551940Y-97322640D02*
X119352060Y-97322640D01*
X161181051Y-87376000D02*
X155792898Y-92764154D01*
X155792898Y-92764154D02*
X152200795Y-89172051D01*
X152200795Y-89172051D02*
X155792898Y-85579949D01*
X157588949Y-83783898D02*
X161181051Y-87376000D01*
X155792898Y-85579949D02*
X157588949Y-83783898D01*
X133696000Y-99074000D02*
X132496000Y-99074000D01*
X132496000Y-100824000D02*
X133696000Y-100824000D01*
X134204000Y-108472000D02*
X133004000Y-108472000D01*
X133004000Y-110222000D02*
X134204000Y-110222000D01*
X131496000Y-102501000D02*
X134196000Y-102501000D01*
X131496000Y-104001000D02*
X134196000Y-104001000D01*
X132996000Y-103101000D02*
X132996000Y-103351000D01*
X132996000Y-103351000D02*
X132846000Y-103201000D01*
X132746000Y-103601000D02*
X132746000Y-102901000D01*
X133096000Y-103251000D02*
X133446000Y-103251000D01*
X132746000Y-103251000D02*
X133096000Y-103601000D01*
X133096000Y-103601000D02*
X133096000Y-102901000D01*
X133096000Y-102901000D02*
X132746000Y-103251000D01*
X133286500Y-88818449D02*
X129694398Y-92410551D01*
X133286500Y-88818449D02*
X135082551Y-90614500D01*
X135082551Y-90614500D02*
X131490449Y-94206602D01*
X131490449Y-94206602D02*
X129694398Y-92410551D01*
D13*
X134286071Y-79647773D02*
X134216025Y-80141687D01*
X134216025Y-80141687D02*
X134709939Y-80071641D01*
X134709939Y-80071641D02*
X134569847Y-80495509D01*
X134569847Y-80495509D02*
X135063761Y-80425463D01*
X135063761Y-80425463D02*
X134923669Y-80849331D01*
X133510176Y-79435839D02*
X133932248Y-79293951D01*
X133932248Y-79293951D02*
X133862202Y-79787865D01*
X133862202Y-79787865D02*
X134286071Y-79647773D01*
X132378664Y-80567351D02*
X133510176Y-79435839D01*
X133792156Y-81980844D02*
X134923669Y-80849331D01*
X130751442Y-78940129D02*
X136832871Y-85021558D01*
X136832871Y-85021558D02*
X134357913Y-87496517D01*
X134357913Y-87496517D02*
X133580222Y-86718827D01*
X133580222Y-86718827D02*
X133792156Y-86506893D01*
X133792156Y-86506893D02*
X129266107Y-81980844D01*
X129266107Y-81980844D02*
X129054173Y-82192778D01*
X129054173Y-82192778D02*
X128276483Y-81415087D01*
X128276483Y-81415087D02*
X130751442Y-78940129D01*
D14*
G36*
X161701725Y-110396166D02*
X161680172Y-110327916D01*
X161644251Y-110166271D01*
X161593962Y-109932785D01*
X161540080Y-109652601D01*
X161484402Y-109370621D01*
X161439501Y-109138930D01*
X161403580Y-108980878D01*
X161387416Y-108918016D01*
X161358679Y-108903647D01*
X161238343Y-108862338D01*
X161062330Y-108808457D01*
X160959955Y-108774332D01*
X160807291Y-108715062D01*
X160746225Y-108671957D01*
X160751614Y-108648608D01*
X160794719Y-108526477D01*
X160871949Y-108327115D01*
X160976120Y-108061299D01*
X161098251Y-107755971D01*
X161234751Y-107425497D01*
X161373047Y-107089636D01*
X161504159Y-106771735D01*
X161622698Y-106484366D01*
X161721481Y-106252676D01*
X161793323Y-106094623D01*
X161827448Y-106028169D01*
X161843613Y-106022781D01*
X161945988Y-106024577D01*
X162109428Y-106047926D01*
X162474027Y-106085643D01*
X162919447Y-106035354D01*
X163319967Y-105875505D01*
X163673789Y-105604301D01*
X163928828Y-105281012D01*
X164092269Y-104887677D01*
X164147946Y-104444052D01*
X164099453Y-104021980D01*
X163941401Y-103630441D01*
X163671993Y-103282007D01*
X163341519Y-103019784D01*
X162946388Y-102847363D01*
X162506356Y-102788093D01*
X162278257Y-102804258D01*
X161879534Y-102912021D01*
X161523916Y-103102402D01*
X161446685Y-103161672D01*
X161161113Y-103472389D01*
X160963548Y-103845967D01*
X160864765Y-104257263D01*
X160873745Y-104686519D01*
X160880929Y-104733217D01*
X160907870Y-104911026D01*
X160922238Y-105029565D01*
X160933015Y-105126552D01*
X159639858Y-105661775D01*
X159433312Y-105746189D01*
X159081286Y-105889874D01*
X158774161Y-106013801D01*
X158528102Y-106112584D01*
X158364661Y-106175446D01*
X158296412Y-106200590D01*
X158291023Y-106198794D01*
X158253306Y-106171854D01*
X158208405Y-106076663D01*
X158141951Y-105888077D01*
X158100642Y-105760558D01*
X158050353Y-105616874D01*
X158025208Y-105555808D01*
X157967734Y-105537847D01*
X157813274Y-105505519D01*
X157586971Y-105462413D01*
X157313972Y-105408532D01*
X157051748Y-105358242D01*
X156812873Y-105309749D01*
X156642248Y-105272032D01*
X156565018Y-105248683D01*
X156557834Y-105241499D01*
X156538077Y-105171453D01*
X156523709Y-105020585D01*
X156518321Y-104778118D01*
X156514729Y-104429684D01*
X156514729Y-104375802D01*
X156516525Y-104083046D01*
X156523709Y-103842375D01*
X156532689Y-103675342D01*
X156543466Y-103607092D01*
X156543466Y-103607092D01*
X156620696Y-103583744D01*
X156789525Y-103544231D01*
X157028399Y-103495737D01*
X157313972Y-103440060D01*
X158055741Y-103305356D01*
X158303596Y-102723435D01*
X158380826Y-102545626D01*
X158470629Y-102326508D01*
X158531694Y-102168455D01*
X158555043Y-102094817D01*
X158526306Y-102033752D01*
X158440096Y-101893660D01*
X158308984Y-101694298D01*
X158149135Y-101462607D01*
X157996471Y-101241693D01*
X157859971Y-101040535D01*
X157761188Y-100895055D01*
X157716287Y-100828601D01*
X157712695Y-100807049D01*
X157728859Y-100769331D01*
X157779149Y-100704674D01*
X157877932Y-100598707D01*
X158035984Y-100433470D01*
X158269471Y-100199983D01*
X158294615Y-100174839D01*
X158520918Y-99955720D01*
X158702319Y-99781503D01*
X158824451Y-99670148D01*
X158880128Y-99632431D01*
X158880128Y-99632431D01*
X158944786Y-99671944D01*
X159090266Y-99767135D01*
X159293220Y-99901839D01*
X159532095Y-100065279D01*
X159546463Y-100076056D01*
X159787134Y-100237700D01*
X159988292Y-100370608D01*
X160133772Y-100462207D01*
X160198430Y-100494536D01*
X160223574Y-100490944D01*
X160343910Y-100453226D01*
X160525311Y-100386773D01*
X160742633Y-100302358D01*
X160965344Y-100208964D01*
X161164705Y-100124549D01*
X161308389Y-100056299D01*
X161367659Y-100018582D01*
X161367659Y-100018582D01*
X161385620Y-99939556D01*
X161421541Y-99767135D01*
X161466442Y-99524668D01*
X161520323Y-99237300D01*
X161525712Y-99213951D01*
X161579593Y-98930175D01*
X161629883Y-98693096D01*
X161669396Y-98527860D01*
X161690948Y-98459610D01*
X161694540Y-98456018D01*
X161784343Y-98445241D01*
X161967540Y-98434465D01*
X162220783Y-98429077D01*
X162517132Y-98427281D01*
X162612323Y-98429077D01*
X162937408Y-98430873D01*
X163156526Y-98441649D01*
X163285842Y-98456018D01*
X163332539Y-98477570D01*
X163332539Y-98481162D01*
X163352296Y-98561985D01*
X163390013Y-98739794D01*
X163436710Y-98984057D01*
X163492388Y-99273221D01*
X163495980Y-99291181D01*
X163551657Y-99576753D01*
X163594763Y-99813832D01*
X163628888Y-99980865D01*
X163648644Y-100050911D01*
X163655828Y-100058095D01*
X163743835Y-100106589D01*
X163905480Y-100185615D01*
X164112025Y-100277213D01*
X164331144Y-100370608D01*
X164535893Y-100453226D01*
X164690354Y-100510700D01*
X164769380Y-100532253D01*
X164772972Y-100532253D01*
X164851999Y-100489147D01*
X165008255Y-100390365D01*
X165220189Y-100253865D01*
X165466248Y-100083240D01*
X165505761Y-100058095D01*
X165746432Y-99892858D01*
X165945794Y-99758155D01*
X166085886Y-99668352D01*
X166145155Y-99630635D01*
X166179280Y-99653984D01*
X166285247Y-99745582D01*
X166441504Y-99891062D01*
X166626497Y-100072464D01*
X166816879Y-100266437D01*
X167000076Y-100456819D01*
X167154536Y-100622055D01*
X167260503Y-100745983D01*
X167300016Y-100803456D01*
X167298220Y-100808845D01*
X167251523Y-100887871D01*
X167154536Y-101042331D01*
X167014444Y-101254265D01*
X166845615Y-101502120D01*
X166815082Y-101547022D01*
X166651642Y-101785896D01*
X166520530Y-101985258D01*
X166432524Y-102123554D01*
X166400195Y-102181028D01*
X166409175Y-102207969D01*
X166454076Y-102328304D01*
X166533102Y-102518685D01*
X166633681Y-102755764D01*
X166865372Y-103299968D01*
X167668207Y-103449040D01*
X167740049Y-103463408D01*
X168029213Y-103519086D01*
X168262700Y-103565783D01*
X168424344Y-103601704D01*
X168487206Y-103617869D01*
X168489002Y-103623257D01*
X168496186Y-103713059D01*
X168501575Y-103894461D01*
X168505167Y-104149500D01*
X168505167Y-104447644D01*
X168505167Y-104670355D01*
X168503371Y-104934374D01*
X168496186Y-105106795D01*
X168485410Y-105210966D01*
X168465654Y-105263052D01*
X168436917Y-105281012D01*
X168357890Y-105298973D01*
X168183674Y-105333098D01*
X167941207Y-105381591D01*
X167657431Y-105431880D01*
X167420352Y-105478578D01*
X167156332Y-105534255D01*
X166976727Y-105580953D01*
X166897701Y-105613282D01*
X166879740Y-105642018D01*
X166820471Y-105769538D01*
X166734260Y-105967104D01*
X166639069Y-106205979D01*
X166427135Y-106748386D01*
X166628293Y-107042938D01*
X166748629Y-107220747D01*
X166917457Y-107472195D01*
X167080898Y-107711069D01*
X167332345Y-108084648D01*
X166193649Y-109244897D01*
X166123603Y-109217956D01*
X166064333Y-109183831D01*
X165924241Y-109094029D01*
X165726675Y-108961121D01*
X165493189Y-108803069D01*
X165295623Y-108666569D01*
X165096261Y-108531865D01*
X164952577Y-108434878D01*
X164887920Y-108391773D01*
X164857387Y-108397161D01*
X164731663Y-108436674D01*
X164544874Y-108504924D01*
X164322163Y-108594727D01*
X164095861Y-108688121D01*
X163887519Y-108777924D01*
X163733059Y-108849766D01*
X163657624Y-108892871D01*
X163637868Y-108959325D01*
X163601947Y-109120970D01*
X163555250Y-109354456D01*
X163501368Y-109634640D01*
X163449282Y-109916620D01*
X163402585Y-110153699D01*
X163368460Y-110324324D01*
X163348704Y-110397962D01*
X163302006Y-110415923D01*
X163154730Y-110430291D01*
X162899691Y-110433883D01*
X162527908Y-110432087D01*
X162466842Y-110432087D01*
X162175882Y-110424903D01*
X161933415Y-110415923D01*
X161769975Y-110406942D01*
X161701725Y-110396166D01*
X161701725Y-110396166D01*
G37*
X161701725Y-110396166D02*
X161680172Y-110327916D01*
X161644251Y-110166271D01*
X161593962Y-109932785D01*
X161540080Y-109652601D01*
X161484402Y-109370621D01*
X161439501Y-109138930D01*
X161403580Y-108980878D01*
X161387416Y-108918016D01*
X161358679Y-108903647D01*
X161238343Y-108862338D01*
X161062330Y-108808457D01*
X160959955Y-108774332D01*
X160807291Y-108715062D01*
X160746225Y-108671957D01*
X160751614Y-108648608D01*
X160794719Y-108526477D01*
X160871949Y-108327115D01*
X160976120Y-108061299D01*
X161098251Y-107755971D01*
X161234751Y-107425497D01*
X161373047Y-107089636D01*
X161504159Y-106771735D01*
X161622698Y-106484366D01*
X161721481Y-106252676D01*
X161793323Y-106094623D01*
X161827448Y-106028169D01*
X161843613Y-106022781D01*
X161945988Y-106024577D01*
X162109428Y-106047926D01*
X162474027Y-106085643D01*
X162919447Y-106035354D01*
X163319967Y-105875505D01*
X163673789Y-105604301D01*
X163928828Y-105281012D01*
X164092269Y-104887677D01*
X164147946Y-104444052D01*
X164099453Y-104021980D01*
X163941401Y-103630441D01*
X163671993Y-103282007D01*
X163341519Y-103019784D01*
X162946388Y-102847363D01*
X162506356Y-102788093D01*
X162278257Y-102804258D01*
X161879534Y-102912021D01*
X161523916Y-103102402D01*
X161446685Y-103161672D01*
X161161113Y-103472389D01*
X160963548Y-103845967D01*
X160864765Y-104257263D01*
X160873745Y-104686519D01*
X160880929Y-104733217D01*
X160907870Y-104911026D01*
X160922238Y-105029565D01*
X160933015Y-105126552D01*
X159639858Y-105661775D01*
X159433312Y-105746189D01*
X159081286Y-105889874D01*
X158774161Y-106013801D01*
X158528102Y-106112584D01*
X158364661Y-106175446D01*
X158296412Y-106200590D01*
X158291023Y-106198794D01*
X158253306Y-106171854D01*
X158208405Y-106076663D01*
X158141951Y-105888077D01*
X158100642Y-105760558D01*
X158050353Y-105616874D01*
X158025208Y-105555808D01*
X157967734Y-105537847D01*
X157813274Y-105505519D01*
X157586971Y-105462413D01*
X157313972Y-105408532D01*
X157051748Y-105358242D01*
X156812873Y-105309749D01*
X156642248Y-105272032D01*
X156565018Y-105248683D01*
X156557834Y-105241499D01*
X156538077Y-105171453D01*
X156523709Y-105020585D01*
X156518321Y-104778118D01*
X156514729Y-104429684D01*
X156514729Y-104375802D01*
X156516525Y-104083046D01*
X156523709Y-103842375D01*
X156532689Y-103675342D01*
X156543466Y-103607092D01*
X156543466Y-103607092D01*
X156620696Y-103583744D01*
X156789525Y-103544231D01*
X157028399Y-103495737D01*
X157313972Y-103440060D01*
X158055741Y-103305356D01*
X158303596Y-102723435D01*
X158380826Y-102545626D01*
X158470629Y-102326508D01*
X158531694Y-102168455D01*
X158555043Y-102094817D01*
X158526306Y-102033752D01*
X158440096Y-101893660D01*
X158308984Y-101694298D01*
X158149135Y-101462607D01*
X157996471Y-101241693D01*
X157859971Y-101040535D01*
X157761188Y-100895055D01*
X157716287Y-100828601D01*
X157712695Y-100807049D01*
X157728859Y-100769331D01*
X157779149Y-100704674D01*
X157877932Y-100598707D01*
X158035984Y-100433470D01*
X158269471Y-100199983D01*
X158294615Y-100174839D01*
X158520918Y-99955720D01*
X158702319Y-99781503D01*
X158824451Y-99670148D01*
X158880128Y-99632431D01*
X158880128Y-99632431D01*
X158944786Y-99671944D01*
X159090266Y-99767135D01*
X159293220Y-99901839D01*
X159532095Y-100065279D01*
X159546463Y-100076056D01*
X159787134Y-100237700D01*
X159988292Y-100370608D01*
X160133772Y-100462207D01*
X160198430Y-100494536D01*
X160223574Y-100490944D01*
X160343910Y-100453226D01*
X160525311Y-100386773D01*
X160742633Y-100302358D01*
X160965344Y-100208964D01*
X161164705Y-100124549D01*
X161308389Y-100056299D01*
X161367659Y-100018582D01*
X161367659Y-100018582D01*
X161385620Y-99939556D01*
X161421541Y-99767135D01*
X161466442Y-99524668D01*
X161520323Y-99237300D01*
X161525712Y-99213951D01*
X161579593Y-98930175D01*
X161629883Y-98693096D01*
X161669396Y-98527860D01*
X161690948Y-98459610D01*
X161694540Y-98456018D01*
X161784343Y-98445241D01*
X161967540Y-98434465D01*
X162220783Y-98429077D01*
X162517132Y-98427281D01*
X162612323Y-98429077D01*
X162937408Y-98430873D01*
X163156526Y-98441649D01*
X163285842Y-98456018D01*
X163332539Y-98477570D01*
X163332539Y-98481162D01*
X163352296Y-98561985D01*
X163390013Y-98739794D01*
X163436710Y-98984057D01*
X163492388Y-99273221D01*
X163495980Y-99291181D01*
X163551657Y-99576753D01*
X163594763Y-99813832D01*
X163628888Y-99980865D01*
X163648644Y-100050911D01*
X163655828Y-100058095D01*
X163743835Y-100106589D01*
X163905480Y-100185615D01*
X164112025Y-100277213D01*
X164331144Y-100370608D01*
X164535893Y-100453226D01*
X164690354Y-100510700D01*
X164769380Y-100532253D01*
X164772972Y-100532253D01*
X164851999Y-100489147D01*
X165008255Y-100390365D01*
X165220189Y-100253865D01*
X165466248Y-100083240D01*
X165505761Y-100058095D01*
X165746432Y-99892858D01*
X165945794Y-99758155D01*
X166085886Y-99668352D01*
X166145155Y-99630635D01*
X166179280Y-99653984D01*
X166285247Y-99745582D01*
X166441504Y-99891062D01*
X166626497Y-100072464D01*
X166816879Y-100266437D01*
X167000076Y-100456819D01*
X167154536Y-100622055D01*
X167260503Y-100745983D01*
X167300016Y-100803456D01*
X167298220Y-100808845D01*
X167251523Y-100887871D01*
X167154536Y-101042331D01*
X167014444Y-101254265D01*
X166845615Y-101502120D01*
X166815082Y-101547022D01*
X166651642Y-101785896D01*
X166520530Y-101985258D01*
X166432524Y-102123554D01*
X166400195Y-102181028D01*
X166409175Y-102207969D01*
X166454076Y-102328304D01*
X166533102Y-102518685D01*
X166633681Y-102755764D01*
X166865372Y-103299968D01*
X167668207Y-103449040D01*
X167740049Y-103463408D01*
X168029213Y-103519086D01*
X168262700Y-103565783D01*
X168424344Y-103601704D01*
X168487206Y-103617869D01*
X168489002Y-103623257D01*
X168496186Y-103713059D01*
X168501575Y-103894461D01*
X168505167Y-104149500D01*
X168505167Y-104447644D01*
X168505167Y-104670355D01*
X168503371Y-104934374D01*
X168496186Y-105106795D01*
X168485410Y-105210966D01*
X168465654Y-105263052D01*
X168436917Y-105281012D01*
X168357890Y-105298973D01*
X168183674Y-105333098D01*
X167941207Y-105381591D01*
X167657431Y-105431880D01*
X167420352Y-105478578D01*
X167156332Y-105534255D01*
X166976727Y-105580953D01*
X166897701Y-105613282D01*
X166879740Y-105642018D01*
X166820471Y-105769538D01*
X166734260Y-105967104D01*
X166639069Y-106205979D01*
X166427135Y-106748386D01*
X166628293Y-107042938D01*
X166748629Y-107220747D01*
X166917457Y-107472195D01*
X167080898Y-107711069D01*
X167332345Y-108084648D01*
X166193649Y-109244897D01*
X166123603Y-109217956D01*
X166064333Y-109183831D01*
X165924241Y-109094029D01*
X165726675Y-108961121D01*
X165493189Y-108803069D01*
X165295623Y-108666569D01*
X165096261Y-108531865D01*
X164952577Y-108434878D01*
X164887920Y-108391773D01*
X164857387Y-108397161D01*
X164731663Y-108436674D01*
X164544874Y-108504924D01*
X164322163Y-108594727D01*
X164095861Y-108688121D01*
X163887519Y-108777924D01*
X163733059Y-108849766D01*
X163657624Y-108892871D01*
X163637868Y-108959325D01*
X163601947Y-109120970D01*
X163555250Y-109354456D01*
X163501368Y-109634640D01*
X163449282Y-109916620D01*
X163402585Y-110153699D01*
X163368460Y-110324324D01*
X163348704Y-110397962D01*
X163302006Y-110415923D01*
X163154730Y-110430291D01*
X162899691Y-110433883D01*
X162527908Y-110432087D01*
X162466842Y-110432087D01*
X162175882Y-110424903D01*
X161933415Y-110415923D01*
X161769975Y-110406942D01*
X161701725Y-110396166D01*
D12*
X135066119Y-82116891D02*
X134907020Y-81957792D01*
X135119152Y-81781016D02*
X151842227Y-98398025D01*
X135154507Y-81710305D02*
X151842227Y-98398025D01*
D10*
X134871664Y-81957792D02*
X135225218Y-81604239D01*
D12*
X155183307Y-101739105D02*
X154264068Y-100819866D01*
X155271695Y-101721427D02*
X154971175Y-102021947D01*
X154971175Y-102021947D02*
X154794398Y-101845171D01*
X154794398Y-101845171D02*
X154882786Y-101756782D01*
D15*
X154962336Y-101818654D02*
X135163346Y-82019664D01*
D12*
X159143105Y-97779307D02*
X159037039Y-97673241D01*
D10*
X159440089Y-97581317D02*
X159178460Y-97319687D01*
X159125427Y-97903050D02*
X159443625Y-97584852D01*
D12*
X155731314Y-94438227D02*
X156102545Y-94668037D01*
X154405489Y-93112402D02*
X155713637Y-94420549D01*
D10*
X139485536Y-77626763D02*
X139344115Y-77485342D01*
D12*
X139202693Y-77838895D02*
X139131983Y-77768185D01*
D10*
X139061272Y-77768185D02*
X139344115Y-77485342D01*
D15*
X159169621Y-97540658D02*
X139370631Y-77741668D01*
D12*
X157233916Y-99087454D02*
X157145528Y-99211198D01*
X156544487Y-99670817D02*
X156791975Y-99564751D01*
D10*
X158807229Y-97514142D02*
X154918142Y-101403229D01*
X159160782Y-97867695D02*
X158771874Y-97478786D01*
X155271695Y-101756782D02*
X159160782Y-97867695D01*
X154882786Y-101367874D02*
X155271695Y-101756782D01*
D16*
X155236340Y-101438584D02*
X158842584Y-97832340D01*
X139096627Y-78086383D02*
X135490383Y-81692627D01*
D10*
X139450181Y-78157093D02*
X139061272Y-77768185D01*
X139061272Y-77768185D02*
X135172185Y-81657272D01*
X135172185Y-81657272D02*
X135561093Y-82046181D01*
X135525738Y-82010825D02*
X139414825Y-78121738D01*
D17*
G36*
X156618504Y-99552037D02*
X156386496Y-99578418D01*
X156151893Y-99515365D01*
X155890854Y-99354275D01*
X155746166Y-99237024D01*
X155403522Y-98942448D01*
X154811796Y-99854897D01*
X154220068Y-100767345D01*
X154545594Y-101092888D01*
X154871119Y-101418432D01*
X155823680Y-100462688D01*
X156140451Y-100143302D01*
X156374398Y-99903126D01*
X156533705Y-99732782D01*
X156626553Y-99622897D01*
X156661127Y-99564097D01*
X156645606Y-99547006D01*
X156618504Y-99552037D01*
X156618504Y-99552037D01*
G37*
X156618504Y-99552037D02*
X156386496Y-99578418D01*
X156151893Y-99515365D01*
X155890854Y-99354275D01*
X155746166Y-99237024D01*
X155403522Y-98942448D01*
X154811796Y-99854897D01*
X154220068Y-100767345D01*
X154545594Y-101092888D01*
X154871119Y-101418432D01*
X155823680Y-100462688D01*
X156140451Y-100143302D01*
X156374398Y-99903126D01*
X156533705Y-99732782D01*
X156626553Y-99622897D01*
X156661127Y-99564097D01*
X156645606Y-99547006D01*
X156618504Y-99552037D01*
G36*
X138212744Y-79371903D02*
X139088319Y-80247478D01*
X139356647Y-80517802D01*
X139589624Y-80756339D01*
X139773954Y-80949160D01*
X139896342Y-81082332D01*
X139943497Y-81141923D01*
X139943403Y-81143544D01*
X139899836Y-81204606D01*
X139801867Y-81349935D01*
X139664134Y-81557206D01*
X139501274Y-81804092D01*
X139327927Y-82068266D01*
X139158731Y-82327403D01*
X139008325Y-82559175D01*
X138891345Y-82741256D01*
X138822432Y-82851322D01*
X138812736Y-82868028D01*
X138775276Y-82910884D01*
X138718734Y-82901643D01*
X138622012Y-82827665D01*
X138464011Y-82676313D01*
X138420852Y-82633298D01*
X138247051Y-82452998D01*
X138153085Y-82333976D01*
X138124034Y-82252954D01*
X138139954Y-82195246D01*
X138197106Y-82100835D01*
X138305947Y-81928305D01*
X138448612Y-81705799D01*
X138548722Y-81551239D01*
X138695196Y-81317403D01*
X138808630Y-81119826D01*
X138874819Y-80984249D01*
X138885598Y-80940631D01*
X138828655Y-80858558D01*
X138710401Y-80747145D01*
X138691821Y-80732151D01*
X138561983Y-80647978D01*
X138486659Y-80655004D01*
X138462720Y-80687213D01*
X138403243Y-80787420D01*
X138297684Y-80956160D01*
X138164262Y-81165290D01*
X138021190Y-81386666D01*
X137886685Y-81592145D01*
X137778964Y-81753584D01*
X137716242Y-81842839D01*
X137709707Y-81850596D01*
X137651359Y-81826490D01*
X137529667Y-81730111D01*
X137368943Y-81581088D01*
X137338025Y-81550471D01*
X137167641Y-81375858D01*
X137074779Y-81262718D01*
X137044851Y-81185084D01*
X137063274Y-81116992D01*
X137079120Y-81089511D01*
X137141078Y-80991467D01*
X137256788Y-80810612D01*
X137410979Y-80570740D01*
X137588380Y-80295643D01*
X137632049Y-80228049D01*
X138107978Y-79491643D01*
X135518667Y-82065980D01*
X151897883Y-98445195D01*
X152202709Y-97964250D01*
X152367035Y-97721784D01*
X152535465Y-97500721D01*
X152678280Y-97339358D01*
X152711790Y-97308228D01*
X152916044Y-97133152D01*
X152301437Y-96493763D01*
X151686829Y-95854374D01*
X151990116Y-95394339D01*
X152149713Y-95161154D01*
X152303944Y-94950834D01*
X152390650Y-94843442D01*
X152136176Y-94588969D01*
X151916824Y-94731341D01*
X151698392Y-94760777D01*
X151618981Y-94740565D01*
X151440463Y-94635117D01*
X151239883Y-94461046D01*
X151059060Y-94259497D01*
X150940399Y-94072935D01*
X150865343Y-93905796D01*
X150703891Y-94128285D01*
X150583149Y-94299704D01*
X150484074Y-94448728D01*
X150466583Y-94476974D01*
X150423579Y-94536458D01*
X150374857Y-94547973D01*
X150297423Y-94499735D01*
X150168279Y-94379959D01*
X150052125Y-94264572D01*
X149877650Y-94083624D01*
X149782975Y-93964014D01*
X149753156Y-93882509D01*
X149768648Y-93823940D01*
X149559884Y-93615176D01*
X149508570Y-93645412D01*
X149438959Y-93623442D01*
X149328706Y-93535522D01*
X149155460Y-93367905D01*
X149151646Y-93364092D01*
X148820327Y-93032773D01*
X148903621Y-92442548D01*
X148938154Y-92185422D01*
X148962227Y-91981467D01*
X148972663Y-91859088D01*
X148971427Y-91836835D01*
X148932947Y-91877513D01*
X148848751Y-91998842D01*
X148758513Y-92140286D01*
X148609699Y-92377260D01*
X148503208Y-92513764D01*
X148411962Y-92555680D01*
X148308885Y-92508900D01*
X148166898Y-92379308D01*
X148076190Y-92288636D01*
X147747045Y-91959491D01*
X147533385Y-91745831D01*
X146852312Y-91064758D01*
X147282803Y-90417618D01*
X147713294Y-89770479D01*
X147520499Y-89577684D01*
X147398439Y-89465149D01*
X147318096Y-89408786D01*
X147304778Y-89407814D01*
X147264185Y-89466197D01*
X147171740Y-89606023D01*
X147044016Y-89801748D01*
X146897586Y-90027825D01*
X146749021Y-90258705D01*
X146614894Y-90468844D01*
X146554305Y-90564695D01*
X146510133Y-90622972D01*
X146460509Y-90633586D01*
X146382340Y-90584634D01*
X146252532Y-90464211D01*
X146137266Y-90349712D01*
X145940388Y-90138782D01*
X145842851Y-89998292D01*
X145833936Y-89934129D01*
X145850065Y-89906441D01*
X145160675Y-89217051D01*
X145108522Y-89245762D01*
X145037666Y-89222254D01*
X144925870Y-89132716D01*
X144750891Y-88963335D01*
X144748840Y-88961286D01*
X144415041Y-88627487D01*
X144511671Y-88031022D01*
X144554961Y-87745077D01*
X144567266Y-87580405D01*
X144541251Y-87533502D01*
X144469582Y-87600862D01*
X144344925Y-87778983D01*
X144259203Y-87910383D01*
X144038779Y-88251225D01*
X143352306Y-87564752D01*
X143357640Y-87556670D01*
X142630576Y-86829605D01*
X142601580Y-86855449D01*
X142529364Y-86808851D01*
X142398960Y-86683923D01*
X142229652Y-86502969D01*
X142040724Y-86288290D01*
X141851463Y-86062191D01*
X141681154Y-85846973D01*
X141575314Y-85701095D01*
X140725647Y-84851428D01*
X140663490Y-84831019D01*
X140538706Y-84736874D01*
X140375659Y-84587790D01*
X140346623Y-84559069D01*
X140010932Y-84223378D01*
X140094226Y-83633153D01*
X140128998Y-83376372D01*
X140153741Y-83173130D01*
X140165164Y-83051680D01*
X140164559Y-83029967D01*
X140127576Y-83072117D01*
X140044696Y-83194700D01*
X139955119Y-83336892D01*
X139807123Y-83574762D01*
X139701311Y-83711997D01*
X139610420Y-83754288D01*
X139507186Y-83707328D01*
X139364343Y-83576809D01*
X139267924Y-83480370D01*
X139110345Y-83315997D01*
X139000250Y-83187935D01*
X138957779Y-83119934D01*
X138958901Y-83115873D01*
X139004729Y-83052415D01*
X139104635Y-82904805D01*
X139243839Y-82695608D01*
X139407566Y-82447387D01*
X139581036Y-82182707D01*
X139749472Y-81924130D01*
X139898096Y-81694220D01*
X140012130Y-81515541D01*
X140076795Y-81410655D01*
X140083096Y-81399410D01*
X140119246Y-81356878D01*
X140174177Y-81364689D01*
X140268337Y-81435431D01*
X140422175Y-81581694D01*
X140492072Y-81651231D01*
X140846696Y-82005855D01*
X140729736Y-82608956D01*
X140685352Y-82861831D01*
X140660101Y-83056711D01*
X140656706Y-83168485D01*
X140667225Y-83184832D01*
X140726175Y-83120557D01*
X140828384Y-82978220D01*
X140951724Y-82788634D01*
X140951738Y-82788612D01*
X141069626Y-82601141D01*
X141159146Y-82461780D01*
X141201245Y-82400182D01*
X141201466Y-82399953D01*
X141252127Y-82431738D01*
X141368061Y-82533745D01*
X141525922Y-82685227D01*
X141554864Y-82714023D01*
X141727948Y-82893802D01*
X141821118Y-83012692D01*
X141849394Y-83094165D01*
X141834179Y-83150493D01*
X141777438Y-83245732D01*
X141669198Y-83417949D01*
X141524418Y-83644196D01*
X141358054Y-83901521D01*
X141185062Y-84166979D01*
X141020399Y-84417616D01*
X140879021Y-84630486D01*
X140775885Y-84782638D01*
X140725947Y-84851123D01*
X140725647Y-84851428D01*
X141575314Y-85701095D01*
X141549081Y-85664939D01*
X141490293Y-85570282D01*
X141332570Y-85229805D01*
X141265583Y-84936905D01*
X141284573Y-84655427D01*
X141343427Y-84454132D01*
X141460301Y-84180224D01*
X141588218Y-83999676D01*
X141755664Y-83880048D01*
X141901279Y-83818849D01*
X142121712Y-83776422D01*
X142353338Y-83810339D01*
X142610767Y-83927519D01*
X142908610Y-84134878D01*
X143261481Y-84439332D01*
X143312740Y-84486948D01*
X143532023Y-84698038D01*
X143703492Y-84874839D01*
X143811688Y-85000605D01*
X143841148Y-85058589D01*
X143840839Y-85058930D01*
X143794128Y-85123219D01*
X143690636Y-85275330D01*
X143542836Y-85496628D01*
X143363201Y-85768478D01*
X143226192Y-85977344D01*
X143031764Y-86270183D01*
X142859313Y-86521610D01*
X142721397Y-86713969D01*
X142630576Y-86829605D01*
X143357640Y-87556670D01*
X143915440Y-86711394D01*
X144109797Y-86418564D01*
X144282167Y-86162034D01*
X144419415Y-85961106D01*
X144508405Y-85835081D01*
X144533650Y-85802961D01*
X144600299Y-85806274D01*
X144728035Y-85898110D01*
X144917244Y-86076402D01*
X145245762Y-86404919D01*
X145141538Y-86991372D01*
X145102686Y-87240164D01*
X145083383Y-87429902D01*
X145085625Y-87535245D01*
X145097737Y-87547613D01*
X145160953Y-87482314D01*
X145268347Y-87340341D01*
X145395290Y-87154491D01*
X145632422Y-86791579D01*
X145978215Y-87137373D01*
X146324009Y-87483168D01*
X145781360Y-88311092D01*
X145588906Y-88602176D01*
X145416056Y-88858885D01*
X145276813Y-89060775D01*
X145185187Y-89187401D01*
X145160675Y-89217051D01*
X145850065Y-89906441D01*
X145883958Y-89848259D01*
X145988254Y-89682446D01*
X146131557Y-89459868D01*
X146298603Y-89203704D01*
X146474123Y-88937134D01*
X146642854Y-88683337D01*
X146789528Y-88465490D01*
X146898879Y-88306774D01*
X146955643Y-88230368D01*
X146956971Y-88228978D01*
X146998356Y-88229390D01*
X147082392Y-88282930D01*
X147218814Y-88398149D01*
X147417359Y-88583592D01*
X147687761Y-88847808D01*
X147881662Y-89040821D01*
X148749928Y-89909087D01*
X147533385Y-91745831D01*
X147747045Y-91959491D01*
X148306065Y-91104576D01*
X148498059Y-90809470D01*
X148666051Y-90548454D01*
X148797371Y-90341429D01*
X148879354Y-90208302D01*
X148899814Y-90171681D01*
X148941776Y-90154330D01*
X149032030Y-90209277D01*
X149184260Y-90346272D01*
X149286569Y-90447253D01*
X149638593Y-90800805D01*
X149530151Y-91425613D01*
X149490877Y-91679008D01*
X149470481Y-91869737D01*
X149470808Y-91974985D01*
X149484916Y-91985018D01*
X149557011Y-91893329D01*
X149678874Y-91714092D01*
X149856633Y-91438165D01*
X149943418Y-91300806D01*
X149987069Y-91241311D01*
X150033758Y-91228544D01*
X150105635Y-91275026D01*
X150224852Y-91393280D01*
X150356580Y-91534363D01*
X150690224Y-91894284D01*
X150163513Y-92714612D01*
X149975204Y-93005407D01*
X149806206Y-93261752D01*
X149670472Y-93462834D01*
X149581954Y-93587837D01*
X149559884Y-93615176D01*
X149768648Y-93823940D01*
X149818497Y-93742527D01*
X149921240Y-93581731D01*
X150062238Y-93363882D01*
X150226855Y-93111304D01*
X150400451Y-92846324D01*
X150568388Y-92591268D01*
X150716027Y-92368463D01*
X150828730Y-92200236D01*
X150891858Y-92108911D01*
X150899315Y-92099457D01*
X150950357Y-92130885D01*
X151066659Y-92232690D01*
X151224906Y-92384236D01*
X151255711Y-92414870D01*
X151420578Y-92578968D01*
X151514060Y-92692510D01*
X151537787Y-92790681D01*
X151493389Y-92908662D01*
X151382498Y-93081635D01*
X151292765Y-93214437D01*
X151202546Y-93389583D01*
X151203212Y-93532777D01*
X151224372Y-93586246D01*
X151319561Y-93722467D01*
X151408013Y-93791652D01*
X151505289Y-93785848D01*
X151627120Y-93684651D01*
X151781713Y-93479612D01*
X151911845Y-93273060D01*
X151954724Y-93213703D01*
X152003307Y-93202069D01*
X152080492Y-93249953D01*
X152209179Y-93369145D01*
X152328475Y-93487632D01*
X152487760Y-93644548D01*
X152583069Y-93753759D01*
X152614856Y-93847250D01*
X152583576Y-93957000D01*
X152489687Y-94114992D01*
X152340661Y-94342375D01*
X152136176Y-94588969D01*
X152390650Y-94843442D01*
X152425238Y-94800602D01*
X152448672Y-94775264D01*
X152694658Y-94603838D01*
X152978480Y-94552125D01*
X153296720Y-94619724D01*
X153645955Y-94806236D01*
X153820773Y-94935616D01*
X154100538Y-95160018D01*
X154179816Y-94907474D01*
X154321879Y-94631926D01*
X154469067Y-94484539D01*
X154725272Y-94325475D01*
X154990501Y-94267526D01*
X155283567Y-94311552D01*
X155623276Y-94458417D01*
X155773377Y-94544303D01*
X155793794Y-94550786D01*
X155779712Y-94523887D01*
X155727958Y-94460388D01*
X155635361Y-94357070D01*
X155498750Y-94210715D01*
X155314952Y-94018103D01*
X155080795Y-93776015D01*
X154793109Y-93481234D01*
X154448720Y-93130540D01*
X154044457Y-92720714D01*
X153577148Y-92248537D01*
X153043621Y-91710791D01*
X152440704Y-91104257D01*
X151765226Y-90425714D01*
X151014014Y-89671947D01*
X150183897Y-88839735D01*
X149271704Y-87925859D01*
X148274260Y-86927102D01*
X147761673Y-86413997D01*
X139469980Y-78114667D01*
X138212744Y-79371903D01*
X138212744Y-79371903D01*
G37*
X138212744Y-79371903D02*
X139088319Y-80247478D01*
X139356647Y-80517802D01*
X139589624Y-80756339D01*
X139773954Y-80949160D01*
X139896342Y-81082332D01*
X139943497Y-81141923D01*
X139943403Y-81143544D01*
X139899836Y-81204606D01*
X139801867Y-81349935D01*
X139664134Y-81557206D01*
X139501274Y-81804092D01*
X139327927Y-82068266D01*
X139158731Y-82327403D01*
X139008325Y-82559175D01*
X138891345Y-82741256D01*
X138822432Y-82851322D01*
X138812736Y-82868028D01*
X138775276Y-82910884D01*
X138718734Y-82901643D01*
X138622012Y-82827665D01*
X138464011Y-82676313D01*
X138420852Y-82633298D01*
X138247051Y-82452998D01*
X138153085Y-82333976D01*
X138124034Y-82252954D01*
X138139954Y-82195246D01*
X138197106Y-82100835D01*
X138305947Y-81928305D01*
X138448612Y-81705799D01*
X138548722Y-81551239D01*
X138695196Y-81317403D01*
X138808630Y-81119826D01*
X138874819Y-80984249D01*
X138885598Y-80940631D01*
X138828655Y-80858558D01*
X138710401Y-80747145D01*
X138691821Y-80732151D01*
X138561983Y-80647978D01*
X138486659Y-80655004D01*
X138462720Y-80687213D01*
X138403243Y-80787420D01*
X138297684Y-80956160D01*
X138164262Y-81165290D01*
X138021190Y-81386666D01*
X137886685Y-81592145D01*
X137778964Y-81753584D01*
X137716242Y-81842839D01*
X137709707Y-81850596D01*
X137651359Y-81826490D01*
X137529667Y-81730111D01*
X137368943Y-81581088D01*
X137338025Y-81550471D01*
X137167641Y-81375858D01*
X137074779Y-81262718D01*
X137044851Y-81185084D01*
X137063274Y-81116992D01*
X137079120Y-81089511D01*
X137141078Y-80991467D01*
X137256788Y-80810612D01*
X137410979Y-80570740D01*
X137588380Y-80295643D01*
X137632049Y-80228049D01*
X138107978Y-79491643D01*
X135518667Y-82065980D01*
X151897883Y-98445195D01*
X152202709Y-97964250D01*
X152367035Y-97721784D01*
X152535465Y-97500721D01*
X152678280Y-97339358D01*
X152711790Y-97308228D01*
X152916044Y-97133152D01*
X152301437Y-96493763D01*
X151686829Y-95854374D01*
X151990116Y-95394339D01*
X152149713Y-95161154D01*
X152303944Y-94950834D01*
X152390650Y-94843442D01*
X152136176Y-94588969D01*
X151916824Y-94731341D01*
X151698392Y-94760777D01*
X151618981Y-94740565D01*
X151440463Y-94635117D01*
X151239883Y-94461046D01*
X151059060Y-94259497D01*
X150940399Y-94072935D01*
X150865343Y-93905796D01*
X150703891Y-94128285D01*
X150583149Y-94299704D01*
X150484074Y-94448728D01*
X150466583Y-94476974D01*
X150423579Y-94536458D01*
X150374857Y-94547973D01*
X150297423Y-94499735D01*
X150168279Y-94379959D01*
X150052125Y-94264572D01*
X149877650Y-94083624D01*
X149782975Y-93964014D01*
X149753156Y-93882509D01*
X149768648Y-93823940D01*
X149559884Y-93615176D01*
X149508570Y-93645412D01*
X149438959Y-93623442D01*
X149328706Y-93535522D01*
X149155460Y-93367905D01*
X149151646Y-93364092D01*
X148820327Y-93032773D01*
X148903621Y-92442548D01*
X148938154Y-92185422D01*
X148962227Y-91981467D01*
X148972663Y-91859088D01*
X148971427Y-91836835D01*
X148932947Y-91877513D01*
X148848751Y-91998842D01*
X148758513Y-92140286D01*
X148609699Y-92377260D01*
X148503208Y-92513764D01*
X148411962Y-92555680D01*
X148308885Y-92508900D01*
X148166898Y-92379308D01*
X148076190Y-92288636D01*
X147747045Y-91959491D01*
X147533385Y-91745831D01*
X146852312Y-91064758D01*
X147282803Y-90417618D01*
X147713294Y-89770479D01*
X147520499Y-89577684D01*
X147398439Y-89465149D01*
X147318096Y-89408786D01*
X147304778Y-89407814D01*
X147264185Y-89466197D01*
X147171740Y-89606023D01*
X147044016Y-89801748D01*
X146897586Y-90027825D01*
X146749021Y-90258705D01*
X146614894Y-90468844D01*
X146554305Y-90564695D01*
X146510133Y-90622972D01*
X146460509Y-90633586D01*
X146382340Y-90584634D01*
X146252532Y-90464211D01*
X146137266Y-90349712D01*
X145940388Y-90138782D01*
X145842851Y-89998292D01*
X145833936Y-89934129D01*
X145850065Y-89906441D01*
X145160675Y-89217051D01*
X145108522Y-89245762D01*
X145037666Y-89222254D01*
X144925870Y-89132716D01*
X144750891Y-88963335D01*
X144748840Y-88961286D01*
X144415041Y-88627487D01*
X144511671Y-88031022D01*
X144554961Y-87745077D01*
X144567266Y-87580405D01*
X144541251Y-87533502D01*
X144469582Y-87600862D01*
X144344925Y-87778983D01*
X144259203Y-87910383D01*
X144038779Y-88251225D01*
X143352306Y-87564752D01*
X143357640Y-87556670D01*
X142630576Y-86829605D01*
X142601580Y-86855449D01*
X142529364Y-86808851D01*
X142398960Y-86683923D01*
X142229652Y-86502969D01*
X142040724Y-86288290D01*
X141851463Y-86062191D01*
X141681154Y-85846973D01*
X141575314Y-85701095D01*
X140725647Y-84851428D01*
X140663490Y-84831019D01*
X140538706Y-84736874D01*
X140375659Y-84587790D01*
X140346623Y-84559069D01*
X140010932Y-84223378D01*
X140094226Y-83633153D01*
X140128998Y-83376372D01*
X140153741Y-83173130D01*
X140165164Y-83051680D01*
X140164559Y-83029967D01*
X140127576Y-83072117D01*
X140044696Y-83194700D01*
X139955119Y-83336892D01*
X139807123Y-83574762D01*
X139701311Y-83711997D01*
X139610420Y-83754288D01*
X139507186Y-83707328D01*
X139364343Y-83576809D01*
X139267924Y-83480370D01*
X139110345Y-83315997D01*
X139000250Y-83187935D01*
X138957779Y-83119934D01*
X138958901Y-83115873D01*
X139004729Y-83052415D01*
X139104635Y-82904805D01*
X139243839Y-82695608D01*
X139407566Y-82447387D01*
X139581036Y-82182707D01*
X139749472Y-81924130D01*
X139898096Y-81694220D01*
X140012130Y-81515541D01*
X140076795Y-81410655D01*
X140083096Y-81399410D01*
X140119246Y-81356878D01*
X140174177Y-81364689D01*
X140268337Y-81435431D01*
X140422175Y-81581694D01*
X140492072Y-81651231D01*
X140846696Y-82005855D01*
X140729736Y-82608956D01*
X140685352Y-82861831D01*
X140660101Y-83056711D01*
X140656706Y-83168485D01*
X140667225Y-83184832D01*
X140726175Y-83120557D01*
X140828384Y-82978220D01*
X140951724Y-82788634D01*
X140951738Y-82788612D01*
X141069626Y-82601141D01*
X141159146Y-82461780D01*
X141201245Y-82400182D01*
X141201466Y-82399953D01*
X141252127Y-82431738D01*
X141368061Y-82533745D01*
X141525922Y-82685227D01*
X141554864Y-82714023D01*
X141727948Y-82893802D01*
X141821118Y-83012692D01*
X141849394Y-83094165D01*
X141834179Y-83150493D01*
X141777438Y-83245732D01*
X141669198Y-83417949D01*
X141524418Y-83644196D01*
X141358054Y-83901521D01*
X141185062Y-84166979D01*
X141020399Y-84417616D01*
X140879021Y-84630486D01*
X140775885Y-84782638D01*
X140725947Y-84851123D01*
X140725647Y-84851428D01*
X141575314Y-85701095D01*
X141549081Y-85664939D01*
X141490293Y-85570282D01*
X141332570Y-85229805D01*
X141265583Y-84936905D01*
X141284573Y-84655427D01*
X141343427Y-84454132D01*
X141460301Y-84180224D01*
X141588218Y-83999676D01*
X141755664Y-83880048D01*
X141901279Y-83818849D01*
X142121712Y-83776422D01*
X142353338Y-83810339D01*
X142610767Y-83927519D01*
X142908610Y-84134878D01*
X143261481Y-84439332D01*
X143312740Y-84486948D01*
X143532023Y-84698038D01*
X143703492Y-84874839D01*
X143811688Y-85000605D01*
X143841148Y-85058589D01*
X143840839Y-85058930D01*
X143794128Y-85123219D01*
X143690636Y-85275330D01*
X143542836Y-85496628D01*
X143363201Y-85768478D01*
X143226192Y-85977344D01*
X143031764Y-86270183D01*
X142859313Y-86521610D01*
X142721397Y-86713969D01*
X142630576Y-86829605D01*
X143357640Y-87556670D01*
X143915440Y-86711394D01*
X144109797Y-86418564D01*
X144282167Y-86162034D01*
X144419415Y-85961106D01*
X144508405Y-85835081D01*
X144533650Y-85802961D01*
X144600299Y-85806274D01*
X144728035Y-85898110D01*
X144917244Y-86076402D01*
X145245762Y-86404919D01*
X145141538Y-86991372D01*
X145102686Y-87240164D01*
X145083383Y-87429902D01*
X145085625Y-87535245D01*
X145097737Y-87547613D01*
X145160953Y-87482314D01*
X145268347Y-87340341D01*
X145395290Y-87154491D01*
X145632422Y-86791579D01*
X145978215Y-87137373D01*
X146324009Y-87483168D01*
X145781360Y-88311092D01*
X145588906Y-88602176D01*
X145416056Y-88858885D01*
X145276813Y-89060775D01*
X145185187Y-89187401D01*
X145160675Y-89217051D01*
X145850065Y-89906441D01*
X145883958Y-89848259D01*
X145988254Y-89682446D01*
X146131557Y-89459868D01*
X146298603Y-89203704D01*
X146474123Y-88937134D01*
X146642854Y-88683337D01*
X146789528Y-88465490D01*
X146898879Y-88306774D01*
X146955643Y-88230368D01*
X146956971Y-88228978D01*
X146998356Y-88229390D01*
X147082392Y-88282930D01*
X147218814Y-88398149D01*
X147417359Y-88583592D01*
X147687761Y-88847808D01*
X147881662Y-89040821D01*
X148749928Y-89909087D01*
X147533385Y-91745831D01*
X147747045Y-91959491D01*
X148306065Y-91104576D01*
X148498059Y-90809470D01*
X148666051Y-90548454D01*
X148797371Y-90341429D01*
X148879354Y-90208302D01*
X148899814Y-90171681D01*
X148941776Y-90154330D01*
X149032030Y-90209277D01*
X149184260Y-90346272D01*
X149286569Y-90447253D01*
X149638593Y-90800805D01*
X149530151Y-91425613D01*
X149490877Y-91679008D01*
X149470481Y-91869737D01*
X149470808Y-91974985D01*
X149484916Y-91985018D01*
X149557011Y-91893329D01*
X149678874Y-91714092D01*
X149856633Y-91438165D01*
X149943418Y-91300806D01*
X149987069Y-91241311D01*
X150033758Y-91228544D01*
X150105635Y-91275026D01*
X150224852Y-91393280D01*
X150356580Y-91534363D01*
X150690224Y-91894284D01*
X150163513Y-92714612D01*
X149975204Y-93005407D01*
X149806206Y-93261752D01*
X149670472Y-93462834D01*
X149581954Y-93587837D01*
X149559884Y-93615176D01*
X149768648Y-93823940D01*
X149818497Y-93742527D01*
X149921240Y-93581731D01*
X150062238Y-93363882D01*
X150226855Y-93111304D01*
X150400451Y-92846324D01*
X150568388Y-92591268D01*
X150716027Y-92368463D01*
X150828730Y-92200236D01*
X150891858Y-92108911D01*
X150899315Y-92099457D01*
X150950357Y-92130885D01*
X151066659Y-92232690D01*
X151224906Y-92384236D01*
X151255711Y-92414870D01*
X151420578Y-92578968D01*
X151514060Y-92692510D01*
X151537787Y-92790681D01*
X151493389Y-92908662D01*
X151382498Y-93081635D01*
X151292765Y-93214437D01*
X151202546Y-93389583D01*
X151203212Y-93532777D01*
X151224372Y-93586246D01*
X151319561Y-93722467D01*
X151408013Y-93791652D01*
X151505289Y-93785848D01*
X151627120Y-93684651D01*
X151781713Y-93479612D01*
X151911845Y-93273060D01*
X151954724Y-93213703D01*
X152003307Y-93202069D01*
X152080492Y-93249953D01*
X152209179Y-93369145D01*
X152328475Y-93487632D01*
X152487760Y-93644548D01*
X152583069Y-93753759D01*
X152614856Y-93847250D01*
X152583576Y-93957000D01*
X152489687Y-94114992D01*
X152340661Y-94342375D01*
X152136176Y-94588969D01*
X152390650Y-94843442D01*
X152425238Y-94800602D01*
X152448672Y-94775264D01*
X152694658Y-94603838D01*
X152978480Y-94552125D01*
X153296720Y-94619724D01*
X153645955Y-94806236D01*
X153820773Y-94935616D01*
X154100538Y-95160018D01*
X154179816Y-94907474D01*
X154321879Y-94631926D01*
X154469067Y-94484539D01*
X154725272Y-94325475D01*
X154990501Y-94267526D01*
X155283567Y-94311552D01*
X155623276Y-94458417D01*
X155773377Y-94544303D01*
X155793794Y-94550786D01*
X155779712Y-94523887D01*
X155727958Y-94460388D01*
X155635361Y-94357070D01*
X155498750Y-94210715D01*
X155314952Y-94018103D01*
X155080795Y-93776015D01*
X154793109Y-93481234D01*
X154448720Y-93130540D01*
X154044457Y-92720714D01*
X153577148Y-92248537D01*
X153043621Y-91710791D01*
X152440704Y-91104257D01*
X151765226Y-90425714D01*
X151014014Y-89671947D01*
X150183897Y-88839735D01*
X149271704Y-87925859D01*
X148274260Y-86927102D01*
X147761673Y-86413997D01*
X139469980Y-78114667D01*
X138212744Y-79371903D01*
G36*
X156144456Y-95078162D02*
X155800295Y-94794870D01*
X155502402Y-94602154D01*
X155239591Y-94491875D01*
X155200568Y-94481465D01*
X154916507Y-94467801D01*
X154670396Y-94560184D01*
X154477777Y-94739648D01*
X154354190Y-94987233D01*
X154315177Y-95283977D01*
X154348972Y-95520510D01*
X154387554Y-95677645D01*
X154406138Y-95768487D01*
X154406250Y-95776726D01*
X154360950Y-95738285D01*
X154243503Y-95628721D01*
X154072597Y-95465672D01*
X153900237Y-95299159D01*
X153576823Y-95004391D01*
X153306015Y-94811382D01*
X153071575Y-94722584D01*
X152857264Y-94740449D01*
X152646845Y-94867430D01*
X152424078Y-95105976D01*
X152172726Y-95458543D01*
X152099485Y-95571060D01*
X151915076Y-95858114D01*
X152838747Y-96781785D01*
X153142420Y-96322136D01*
X153446094Y-95862487D01*
X153547567Y-95963962D01*
X153592621Y-96029379D01*
X153590199Y-96112477D01*
X153531929Y-96241528D01*
X153409442Y-96444803D01*
X153401448Y-96457477D01*
X153271341Y-96658771D01*
X153161635Y-96820066D01*
X153094683Y-96908574D01*
X153092011Y-96911361D01*
X153086739Y-96999963D01*
X153187321Y-97130359D01*
X153287258Y-97235574D01*
X153293432Y-97278700D01*
X153201885Y-97287450D01*
X153164870Y-97287514D01*
X152983907Y-97323856D01*
X152807265Y-97447063D01*
X152729177Y-97525339D01*
X152676010Y-97597647D01*
X152574142Y-97747533D01*
X152443425Y-97945666D01*
X152412025Y-97993960D01*
X152138267Y-98416172D01*
X153067104Y-99345009D01*
X153284335Y-99000974D01*
X153411800Y-98798926D01*
X153521671Y-98624456D01*
X153579320Y-98532637D01*
X153654270Y-98454268D01*
X153738020Y-98490529D01*
X153763165Y-98514426D01*
X153808579Y-98574776D01*
X153813374Y-98647170D01*
X153768795Y-98757039D01*
X153666089Y-98929816D01*
X153567689Y-99082272D01*
X153266122Y-99544027D01*
X154187237Y-100465142D01*
X154275565Y-100328012D01*
X154175625Y-100228072D01*
X154123593Y-100197431D01*
X154005788Y-100095690D01*
X153844945Y-99942831D01*
X153797087Y-99895387D01*
X153441476Y-99539776D01*
X153682473Y-99156877D01*
X153812284Y-98956161D01*
X153923338Y-98794232D01*
X153992119Y-98705346D01*
X153993183Y-98704265D01*
X154014584Y-98634733D01*
X153951651Y-98529932D01*
X153860840Y-98432497D01*
X153730627Y-98312503D01*
X153648352Y-98276662D01*
X153578649Y-98313273D01*
X153558855Y-98332567D01*
X153460169Y-98454603D01*
X153328498Y-98643465D01*
X153193160Y-98855312D01*
X153090988Y-99032133D01*
X153054899Y-99074149D01*
X153000172Y-99066476D01*
X152906561Y-98996513D01*
X152753820Y-98851662D01*
X152674838Y-98773137D01*
X152496927Y-98592814D01*
X152395702Y-98476016D01*
X152357719Y-98396799D01*
X152369534Y-98329216D01*
X152409272Y-98260615D01*
X152510798Y-98096643D01*
X152621160Y-97913356D01*
X152621948Y-97912025D01*
X152806290Y-97649904D01*
X152990134Y-97499026D01*
X153192336Y-97445120D01*
X153239143Y-97444791D01*
X153325391Y-97451138D01*
X153405200Y-97472698D01*
X153495286Y-97522041D01*
X153612369Y-97611734D01*
X153773163Y-97754343D01*
X153994390Y-97962437D01*
X154236756Y-98194733D01*
X155009739Y-98937754D01*
X154928912Y-99066493D01*
X154812654Y-99249998D01*
X154671639Y-99470167D01*
X154522508Y-99701339D01*
X154381899Y-99917856D01*
X154266454Y-100094058D01*
X154192813Y-100204287D01*
X154175625Y-100228072D01*
X154275565Y-100328012D01*
X154653400Y-99741421D01*
X154838912Y-99454829D01*
X155012175Y-99189703D01*
X155155301Y-98973248D01*
X155250401Y-98832672D01*
X155259010Y-98820388D01*
X155398457Y-98623075D01*
X155715582Y-98940200D01*
X156016489Y-99205264D01*
X156278376Y-99352588D01*
X156511222Y-99381598D01*
X156725007Y-99291721D01*
X156795246Y-99219891D01*
X156697251Y-99121897D01*
X156599673Y-99202918D01*
X156507504Y-99237050D01*
X156420049Y-99240796D01*
X156316020Y-99223384D01*
X156209254Y-99170456D01*
X156075001Y-99064517D01*
X155888513Y-98888078D01*
X155808435Y-98808547D01*
X155385512Y-98385624D01*
X155223216Y-98604989D01*
X155060921Y-98824355D01*
X154357359Y-98120792D01*
X154349730Y-97596799D01*
X154340574Y-97373658D01*
X154322626Y-97224986D01*
X154299116Y-97172528D01*
X154288474Y-97184182D01*
X154216377Y-97308316D01*
X154108063Y-97470250D01*
X154087258Y-97499331D01*
X153939670Y-97703103D01*
X153221220Y-96984654D01*
X153824354Y-96061144D01*
X153654417Y-95891207D01*
X153528094Y-95784628D01*
X153431286Y-95736636D01*
X153418210Y-95736913D01*
X153353267Y-95794464D01*
X153243849Y-95931567D01*
X153112410Y-96119837D01*
X153098315Y-96141310D01*
X152972482Y-96332866D01*
X152875729Y-96477683D01*
X152826925Y-96547558D01*
X152825176Y-96549578D01*
X152774726Y-96517364D01*
X152658151Y-96414472D01*
X152498025Y-96261119D01*
X152451254Y-96214687D01*
X152282451Y-96045582D01*
X152181585Y-95923148D01*
X152148887Y-95816624D01*
X152184591Y-95695248D01*
X152288930Y-95528258D01*
X152458246Y-95290357D01*
X152745312Y-94887337D01*
X152989670Y-94887219D01*
X153234028Y-94887101D01*
X154022292Y-95646125D01*
X154810556Y-96405150D01*
X154783622Y-96901369D01*
X154776203Y-97158746D01*
X154793949Y-97293369D01*
X154844791Y-97308308D01*
X154936661Y-97206633D01*
X155065607Y-97010539D01*
X155194886Y-96803057D01*
X155933699Y-97541871D01*
X155761620Y-97796354D01*
X155662439Y-97956740D01*
X155636039Y-98060855D01*
X155677051Y-98152537D01*
X155712546Y-98197236D01*
X155823241Y-98314070D01*
X155916639Y-98359631D01*
X156011348Y-98324775D01*
X156125973Y-98200364D01*
X156279122Y-97977255D01*
X156333916Y-97891976D01*
X156475059Y-97672429D01*
X156590874Y-97495458D01*
X156664215Y-97387116D01*
X156679368Y-97367063D01*
X156735946Y-97392180D01*
X156857067Y-97489692D01*
X157019386Y-97640316D01*
X157066410Y-97686754D01*
X157420749Y-98041092D01*
X157169291Y-98440703D01*
X156967377Y-98756470D01*
X156814925Y-98978307D01*
X156697251Y-99121897D01*
X156795246Y-99219891D01*
X156929708Y-99082382D01*
X157074318Y-98862095D01*
X157176878Y-98694275D01*
X157313065Y-98481299D01*
X157396920Y-98354023D01*
X157603730Y-98044469D01*
X157134595Y-97575334D01*
X156924940Y-97367065D01*
X156786179Y-97237065D01*
X156699640Y-97173563D01*
X156646653Y-97164787D01*
X156608545Y-97198966D01*
X156587875Y-97230669D01*
X156335513Y-97624815D01*
X156138345Y-97908573D01*
X155994178Y-98084850D01*
X155900820Y-98156552D01*
X155887989Y-98158599D01*
X155828239Y-98145223D01*
X155807807Y-98097145D01*
X155832406Y-98002438D01*
X155907745Y-97849176D01*
X156039534Y-97625432D01*
X156089316Y-97546853D01*
X155948332Y-97405869D01*
X155374319Y-96775931D01*
X155125297Y-96492139D01*
X154901935Y-96218065D01*
X154726398Y-95981885D01*
X154630203Y-95829858D01*
X154498047Y-95498375D01*
X154463212Y-95192095D01*
X154522694Y-94929558D01*
X154673490Y-94729305D01*
X154822996Y-94639673D01*
X155056549Y-94608026D01*
X155339745Y-94687022D01*
X155674143Y-94877537D01*
X156061308Y-95180449D01*
X156471244Y-95564944D01*
X156659882Y-95760636D01*
X156803895Y-95923714D01*
X156886189Y-96033930D01*
X156897290Y-96069566D01*
X156836568Y-96146596D01*
X156750404Y-96270251D01*
X156642808Y-96431646D01*
X156098419Y-95927395D01*
X155837217Y-95692054D01*
X155646543Y-95539521D01*
X155509455Y-95460526D01*
X155409014Y-95445796D01*
X155328280Y-95486062D01*
X155314569Y-95498401D01*
X155273542Y-95613497D01*
X155288806Y-95789442D01*
X155352624Y-95977410D01*
X155404655Y-96066871D01*
X155547769Y-96269378D01*
X155855166Y-95836996D01*
X156190806Y-96190885D01*
X156362221Y-96378782D01*
X156456520Y-96521482D01*
X156472999Y-96650935D01*
X156410956Y-96799088D01*
X156269685Y-96997891D01*
X156170239Y-97124852D01*
X155948332Y-97405869D01*
X156089316Y-97546853D01*
X156233485Y-97319281D01*
X156445081Y-96995084D01*
X157094077Y-96008170D01*
X156546075Y-95460168D01*
X156144456Y-95078162D01*
X156144456Y-95078162D01*
G37*
X156144456Y-95078162D02*
X155800295Y-94794870D01*
X155502402Y-94602154D01*
X155239591Y-94491875D01*
X155200568Y-94481465D01*
X154916507Y-94467801D01*
X154670396Y-94560184D01*
X154477777Y-94739648D01*
X154354190Y-94987233D01*
X154315177Y-95283977D01*
X154348972Y-95520510D01*
X154387554Y-95677645D01*
X154406138Y-95768487D01*
X154406250Y-95776726D01*
X154360950Y-95738285D01*
X154243503Y-95628721D01*
X154072597Y-95465672D01*
X153900237Y-95299159D01*
X153576823Y-95004391D01*
X153306015Y-94811382D01*
X153071575Y-94722584D01*
X152857264Y-94740449D01*
X152646845Y-94867430D01*
X152424078Y-95105976D01*
X152172726Y-95458543D01*
X152099485Y-95571060D01*
X151915076Y-95858114D01*
X152838747Y-96781785D01*
X153142420Y-96322136D01*
X153446094Y-95862487D01*
X153547567Y-95963962D01*
X153592621Y-96029379D01*
X153590199Y-96112477D01*
X153531929Y-96241528D01*
X153409442Y-96444803D01*
X153401448Y-96457477D01*
X153271341Y-96658771D01*
X153161635Y-96820066D01*
X153094683Y-96908574D01*
X153092011Y-96911361D01*
X153086739Y-96999963D01*
X153187321Y-97130359D01*
X153287258Y-97235574D01*
X153293432Y-97278700D01*
X153201885Y-97287450D01*
X153164870Y-97287514D01*
X152983907Y-97323856D01*
X152807265Y-97447063D01*
X152729177Y-97525339D01*
X152676010Y-97597647D01*
X152574142Y-97747533D01*
X152443425Y-97945666D01*
X152412025Y-97993960D01*
X152138267Y-98416172D01*
X153067104Y-99345009D01*
X153284335Y-99000974D01*
X153411800Y-98798926D01*
X153521671Y-98624456D01*
X153579320Y-98532637D01*
X153654270Y-98454268D01*
X153738020Y-98490529D01*
X153763165Y-98514426D01*
X153808579Y-98574776D01*
X153813374Y-98647170D01*
X153768795Y-98757039D01*
X153666089Y-98929816D01*
X153567689Y-99082272D01*
X153266122Y-99544027D01*
X154187237Y-100465142D01*
X154275565Y-100328012D01*
X154175625Y-100228072D01*
X154123593Y-100197431D01*
X154005788Y-100095690D01*
X153844945Y-99942831D01*
X153797087Y-99895387D01*
X153441476Y-99539776D01*
X153682473Y-99156877D01*
X153812284Y-98956161D01*
X153923338Y-98794232D01*
X153992119Y-98705346D01*
X153993183Y-98704265D01*
X154014584Y-98634733D01*
X153951651Y-98529932D01*
X153860840Y-98432497D01*
X153730627Y-98312503D01*
X153648352Y-98276662D01*
X153578649Y-98313273D01*
X153558855Y-98332567D01*
X153460169Y-98454603D01*
X153328498Y-98643465D01*
X153193160Y-98855312D01*
X153090988Y-99032133D01*
X153054899Y-99074149D01*
X153000172Y-99066476D01*
X152906561Y-98996513D01*
X152753820Y-98851662D01*
X152674838Y-98773137D01*
X152496927Y-98592814D01*
X152395702Y-98476016D01*
X152357719Y-98396799D01*
X152369534Y-98329216D01*
X152409272Y-98260615D01*
X152510798Y-98096643D01*
X152621160Y-97913356D01*
X152621948Y-97912025D01*
X152806290Y-97649904D01*
X152990134Y-97499026D01*
X153192336Y-97445120D01*
X153239143Y-97444791D01*
X153325391Y-97451138D01*
X153405200Y-97472698D01*
X153495286Y-97522041D01*
X153612369Y-97611734D01*
X153773163Y-97754343D01*
X153994390Y-97962437D01*
X154236756Y-98194733D01*
X155009739Y-98937754D01*
X154928912Y-99066493D01*
X154812654Y-99249998D01*
X154671639Y-99470167D01*
X154522508Y-99701339D01*
X154381899Y-99917856D01*
X154266454Y-100094058D01*
X154192813Y-100204287D01*
X154175625Y-100228072D01*
X154275565Y-100328012D01*
X154653400Y-99741421D01*
X154838912Y-99454829D01*
X155012175Y-99189703D01*
X155155301Y-98973248D01*
X155250401Y-98832672D01*
X155259010Y-98820388D01*
X155398457Y-98623075D01*
X155715582Y-98940200D01*
X156016489Y-99205264D01*
X156278376Y-99352588D01*
X156511222Y-99381598D01*
X156725007Y-99291721D01*
X156795246Y-99219891D01*
X156697251Y-99121897D01*
X156599673Y-99202918D01*
X156507504Y-99237050D01*
X156420049Y-99240796D01*
X156316020Y-99223384D01*
X156209254Y-99170456D01*
X156075001Y-99064517D01*
X155888513Y-98888078D01*
X155808435Y-98808547D01*
X155385512Y-98385624D01*
X155223216Y-98604989D01*
X155060921Y-98824355D01*
X154357359Y-98120792D01*
X154349730Y-97596799D01*
X154340574Y-97373658D01*
X154322626Y-97224986D01*
X154299116Y-97172528D01*
X154288474Y-97184182D01*
X154216377Y-97308316D01*
X154108063Y-97470250D01*
X154087258Y-97499331D01*
X153939670Y-97703103D01*
X153221220Y-96984654D01*
X153824354Y-96061144D01*
X153654417Y-95891207D01*
X153528094Y-95784628D01*
X153431286Y-95736636D01*
X153418210Y-95736913D01*
X153353267Y-95794464D01*
X153243849Y-95931567D01*
X153112410Y-96119837D01*
X153098315Y-96141310D01*
X152972482Y-96332866D01*
X152875729Y-96477683D01*
X152826925Y-96547558D01*
X152825176Y-96549578D01*
X152774726Y-96517364D01*
X152658151Y-96414472D01*
X152498025Y-96261119D01*
X152451254Y-96214687D01*
X152282451Y-96045582D01*
X152181585Y-95923148D01*
X152148887Y-95816624D01*
X152184591Y-95695248D01*
X152288930Y-95528258D01*
X152458246Y-95290357D01*
X152745312Y-94887337D01*
X152989670Y-94887219D01*
X153234028Y-94887101D01*
X154022292Y-95646125D01*
X154810556Y-96405150D01*
X154783622Y-96901369D01*
X154776203Y-97158746D01*
X154793949Y-97293369D01*
X154844791Y-97308308D01*
X154936661Y-97206633D01*
X155065607Y-97010539D01*
X155194886Y-96803057D01*
X155933699Y-97541871D01*
X155761620Y-97796354D01*
X155662439Y-97956740D01*
X155636039Y-98060855D01*
X155677051Y-98152537D01*
X155712546Y-98197236D01*
X155823241Y-98314070D01*
X155916639Y-98359631D01*
X156011348Y-98324775D01*
X156125973Y-98200364D01*
X156279122Y-97977255D01*
X156333916Y-97891976D01*
X156475059Y-97672429D01*
X156590874Y-97495458D01*
X156664215Y-97387116D01*
X156679368Y-97367063D01*
X156735946Y-97392180D01*
X156857067Y-97489692D01*
X157019386Y-97640316D01*
X157066410Y-97686754D01*
X157420749Y-98041092D01*
X157169291Y-98440703D01*
X156967377Y-98756470D01*
X156814925Y-98978307D01*
X156697251Y-99121897D01*
X156795246Y-99219891D01*
X156929708Y-99082382D01*
X157074318Y-98862095D01*
X157176878Y-98694275D01*
X157313065Y-98481299D01*
X157396920Y-98354023D01*
X157603730Y-98044469D01*
X157134595Y-97575334D01*
X156924940Y-97367065D01*
X156786179Y-97237065D01*
X156699640Y-97173563D01*
X156646653Y-97164787D01*
X156608545Y-97198966D01*
X156587875Y-97230669D01*
X156335513Y-97624815D01*
X156138345Y-97908573D01*
X155994178Y-98084850D01*
X155900820Y-98156552D01*
X155887989Y-98158599D01*
X155828239Y-98145223D01*
X155807807Y-98097145D01*
X155832406Y-98002438D01*
X155907745Y-97849176D01*
X156039534Y-97625432D01*
X156089316Y-97546853D01*
X155948332Y-97405869D01*
X155374319Y-96775931D01*
X155125297Y-96492139D01*
X154901935Y-96218065D01*
X154726398Y-95981885D01*
X154630203Y-95829858D01*
X154498047Y-95498375D01*
X154463212Y-95192095D01*
X154522694Y-94929558D01*
X154673490Y-94729305D01*
X154822996Y-94639673D01*
X155056549Y-94608026D01*
X155339745Y-94687022D01*
X155674143Y-94877537D01*
X156061308Y-95180449D01*
X156471244Y-95564944D01*
X156659882Y-95760636D01*
X156803895Y-95923714D01*
X156886189Y-96033930D01*
X156897290Y-96069566D01*
X156836568Y-96146596D01*
X156750404Y-96270251D01*
X156642808Y-96431646D01*
X156098419Y-95927395D01*
X155837217Y-95692054D01*
X155646543Y-95539521D01*
X155509455Y-95460526D01*
X155409014Y-95445796D01*
X155328280Y-95486062D01*
X155314569Y-95498401D01*
X155273542Y-95613497D01*
X155288806Y-95789442D01*
X155352624Y-95977410D01*
X155404655Y-96066871D01*
X155547769Y-96269378D01*
X155855166Y-95836996D01*
X156190806Y-96190885D01*
X156362221Y-96378782D01*
X156456520Y-96521482D01*
X156472999Y-96650935D01*
X156410956Y-96799088D01*
X156269685Y-96997891D01*
X156170239Y-97124852D01*
X155948332Y-97405869D01*
X156089316Y-97546853D01*
X156233485Y-97319281D01*
X156445081Y-96995084D01*
X157094077Y-96008170D01*
X156546075Y-95460168D01*
X156144456Y-95078162D01*
G36*
X157254015Y-96100758D02*
X157177816Y-96219399D01*
X157058704Y-96399425D01*
X156950416Y-96560481D01*
X156723756Y-96895087D01*
X157827232Y-97998563D01*
X157486140Y-98533046D01*
X157338516Y-98765783D01*
X157216729Y-98960425D01*
X157137060Y-99090807D01*
X157115846Y-99128129D01*
X157149174Y-99104810D01*
X157259243Y-99004163D01*
X157432985Y-98838656D01*
X157657333Y-98620755D01*
X157919218Y-98362929D01*
X157954537Y-98327924D01*
X158822432Y-97467119D01*
X157330955Y-95975642D01*
X157254015Y-96100758D01*
X157254015Y-96100758D01*
G37*
X157254015Y-96100758D02*
X157177816Y-96219399D01*
X157058704Y-96399425D01*
X156950416Y-96560481D01*
X156723756Y-96895087D01*
X157827232Y-97998563D01*
X157486140Y-98533046D01*
X157338516Y-98765783D01*
X157216729Y-98960425D01*
X157137060Y-99090807D01*
X157115846Y-99128129D01*
X157149174Y-99104810D01*
X157259243Y-99004163D01*
X157432985Y-98838656D01*
X157657333Y-98620755D01*
X157919218Y-98362929D01*
X157954537Y-98327924D01*
X158822432Y-97467119D01*
X157330955Y-95975642D01*
X157254015Y-96100758D01*
G36*
X142518555Y-84730524D02*
X142345941Y-84724836D01*
X142199528Y-84805260D01*
X142101570Y-84952013D01*
X142074318Y-85145314D01*
X142129632Y-85344803D01*
X142219825Y-85514449D01*
X142292586Y-85573804D01*
X142377886Y-85524861D01*
X142505530Y-85369843D01*
X142658466Y-85160234D01*
X142736062Y-85020306D01*
X142747378Y-84924837D01*
X142701473Y-84848610D01*
X142695116Y-84842104D01*
X142518555Y-84730524D01*
X142518555Y-84730524D01*
G37*
X142518555Y-84730524D02*
X142345941Y-84724836D01*
X142199528Y-84805260D01*
X142101570Y-84952013D01*
X142074318Y-85145314D01*
X142129632Y-85344803D01*
X142219825Y-85514449D01*
X142292586Y-85573804D01*
X142377886Y-85524861D01*
X142505530Y-85369843D01*
X142658466Y-85160234D01*
X142736062Y-85020306D01*
X142747378Y-84924837D01*
X142701473Y-84848610D01*
X142695116Y-84842104D01*
X142518555Y-84730524D01*
G36*
X145015288Y-87656189D02*
X145015288Y-87701090D01*
X145060189Y-87701090D01*
X145060189Y-87656189D01*
X145015288Y-87656189D01*
X145015288Y-87656189D01*
G37*
X145015288Y-87656189D02*
X145015288Y-87701090D01*
X145060189Y-87701090D01*
X145060189Y-87656189D01*
X145015288Y-87656189D01*
D12*
X129833666Y-97893143D02*
X129881285Y-97940762D01*
X130024142Y-97988381D01*
X130119380Y-97988381D01*
X130262238Y-97940762D01*
X130357476Y-97845524D01*
X130405095Y-97750286D01*
X130452714Y-97559810D01*
X130452714Y-97416952D01*
X130405095Y-97226476D01*
X130357476Y-97131238D01*
X130262238Y-97036000D01*
X130119380Y-96988381D01*
X130024142Y-96988381D01*
X129881285Y-97036000D01*
X129833666Y-97083619D01*
X128881285Y-97988381D02*
X129452714Y-97988381D01*
X129167000Y-97988381D02*
X129167000Y-96988381D01*
X129262238Y-97131238D01*
X129357476Y-97226476D01*
X129452714Y-97274095D01*
X137564667Y-107068881D02*
X137564667Y-106068881D01*
X137326572Y-106068881D01*
X137183714Y-106116500D01*
X137088476Y-106211738D01*
X137040857Y-106306976D01*
X136993238Y-106497452D01*
X136993238Y-106640310D01*
X137040857Y-106830786D01*
X137088476Y-106926024D01*
X137183714Y-107021262D01*
X137326572Y-107068881D01*
X137564667Y-107068881D01*
X136612286Y-106783167D02*
X136136095Y-106783167D01*
X136707524Y-107068881D02*
X136374191Y-106068881D01*
X136040857Y-107068881D01*
X135183714Y-107068881D02*
X135755143Y-107068881D01*
X135469429Y-107068881D02*
X135469429Y-106068881D01*
X135564667Y-106211738D01*
X135659905Y-106306976D01*
X135755143Y-106354595D01*
X145335524Y-115805381D02*
X145335524Y-114805381D01*
X145002190Y-115519667D01*
X144668857Y-114805381D01*
X144668857Y-115805381D01*
X143668857Y-115805381D02*
X144240286Y-115805381D01*
X143954572Y-115805381D02*
X143954572Y-114805381D01*
X144049810Y-114948238D01*
X144145048Y-115043476D01*
X144240286Y-115091095D01*
X124690095Y-87023201D02*
X124690095Y-86023201D01*
X124309142Y-86023201D01*
X124213904Y-86070820D01*
X124166285Y-86118439D01*
X124118666Y-86213677D01*
X124118666Y-86356534D01*
X124166285Y-86451772D01*
X124213904Y-86499391D01*
X124309142Y-86547010D01*
X124690095Y-86547010D01*
X123166285Y-87023201D02*
X123737714Y-87023201D01*
X123452000Y-87023201D02*
X123452000Y-86023201D01*
X123547238Y-86166058D01*
X123642476Y-86261296D01*
X123737714Y-86308915D01*
X160730030Y-85550794D02*
X161437137Y-84843687D01*
X161167763Y-84574312D01*
X161066747Y-84540641D01*
X160999404Y-84540641D01*
X160898389Y-84574312D01*
X160797374Y-84675328D01*
X160763702Y-84776343D01*
X160763702Y-84843686D01*
X160797374Y-84944701D01*
X161066748Y-85214076D01*
X160696359Y-84237595D02*
X160696359Y-84170252D01*
X160662687Y-84069237D01*
X160494328Y-83900877D01*
X160393312Y-83867206D01*
X160325969Y-83867206D01*
X160224954Y-83900877D01*
X160157610Y-83968221D01*
X160090267Y-84102908D01*
X160090267Y-84911030D01*
X159652534Y-84473297D01*
X129897166Y-100401381D02*
X130230500Y-99925190D01*
X130468595Y-100401381D02*
X130468595Y-99401381D01*
X130087642Y-99401381D01*
X129992404Y-99449000D01*
X129944785Y-99496619D01*
X129897166Y-99591857D01*
X129897166Y-99734714D01*
X129944785Y-99829952D01*
X129992404Y-99877571D01*
X130087642Y-99925190D01*
X130468595Y-99925190D01*
X128944785Y-100401381D02*
X129516214Y-100401381D01*
X129230500Y-100401381D02*
X129230500Y-99401381D01*
X129325738Y-99544238D01*
X129420976Y-99639476D01*
X129516214Y-99687095D01*
X136691595Y-103766881D02*
X136691595Y-102766881D01*
X136453500Y-102766881D01*
X136310642Y-102814500D01*
X136215404Y-102909738D01*
X136167785Y-103004976D01*
X136120166Y-103195452D01*
X136120166Y-103338310D01*
X136167785Y-103528786D01*
X136215404Y-103624024D01*
X136310642Y-103719262D01*
X136453500Y-103766881D01*
X136691595Y-103766881D01*
X135167785Y-103766881D02*
X135739214Y-103766881D01*
X135453500Y-103766881D02*
X135453500Y-102766881D01*
X135548738Y-102909738D01*
X135643976Y-103004976D01*
X135739214Y-103052595D01*
X135670591Y-89405076D02*
X135535904Y-89337732D01*
X135468560Y-89337733D01*
X135367544Y-89371405D01*
X135266529Y-89472420D01*
X135232858Y-89573435D01*
X135232858Y-89640778D01*
X135266529Y-89741794D01*
X135535904Y-90011168D01*
X136243011Y-89304061D01*
X136007308Y-89068359D01*
X135906293Y-89034687D01*
X135838949Y-89034687D01*
X135737934Y-89068359D01*
X135670591Y-89135702D01*
X135636919Y-89236717D01*
X135636919Y-89304061D01*
X135670591Y-89405076D01*
X135906293Y-89640778D01*
X135636919Y-88697970D02*
X135232858Y-88293908D01*
X134727782Y-89203046D02*
X135434889Y-88495939D01*
X133919659Y-88394924D02*
X134323721Y-88798985D01*
X134121690Y-88596955D02*
X134828797Y-87889848D01*
X134795125Y-88058206D01*
X134795125Y-88192893D01*
X134828797Y-88293908D01*
X141087687Y-100706450D02*
X141424405Y-101043167D01*
X142131512Y-100336061D01*
X140851985Y-100470747D02*
X141323390Y-99999343D01*
X141559092Y-99763641D02*
X141559092Y-99830984D01*
X141491748Y-99830984D01*
X141491748Y-99763641D01*
X141559092Y-99763641D01*
X141491748Y-99830984D01*
X140784642Y-99864657D02*
X140245894Y-99325908D01*
X139639803Y-99258565D02*
X140346909Y-98551458D01*
X140077535Y-98282084D01*
X139976520Y-98248412D01*
X139909176Y-98248412D01*
X139808161Y-98282084D01*
X139707146Y-98383099D01*
X139673474Y-98484114D01*
X139673474Y-98551457D01*
X139707146Y-98652473D01*
X139976520Y-98921847D01*
X138831681Y-98450443D02*
X138932696Y-98484115D01*
X139000039Y-98484115D01*
X139101054Y-98450443D01*
X139303085Y-98248412D01*
X139336757Y-98147397D01*
X139336757Y-98080053D01*
X139303085Y-97979038D01*
X139202070Y-97878022D01*
X139101054Y-97844351D01*
X139033711Y-97844351D01*
X138932696Y-97878022D01*
X138730665Y-98080053D01*
X138696993Y-98181069D01*
X138696993Y-98248412D01*
X138730665Y-98349427D01*
X138831681Y-98450443D01*
X138191917Y-97810680D02*
X138292932Y-97844351D01*
X138393948Y-97810680D01*
X139000039Y-97204588D01*
X138158245Y-96362794D02*
X137720512Y-95925061D01*
X137686841Y-96430137D01*
X137585825Y-96329121D01*
X137484810Y-96295450D01*
X137417466Y-96295450D01*
X137316451Y-96329122D01*
X137148092Y-96497481D01*
X137114420Y-96598496D01*
X137114420Y-96665839D01*
X137148092Y-96766854D01*
X137350123Y-96968885D01*
X137451138Y-97002557D01*
X137518482Y-97002557D01*
X136710360Y-96261779D02*
X136676688Y-96295450D01*
X136643016Y-96396465D01*
X136643016Y-96463809D01*
X137148093Y-95352641D02*
X136676688Y-94881237D01*
X136272627Y-95891390D01*
X136508329Y-94712878D02*
X135565520Y-95184283D01*
X136036925Y-94241473D01*
D18*
X131186343Y-87460339D02*
X130981080Y-87357708D01*
X130724501Y-87101129D01*
X130673186Y-86947181D01*
X130673186Y-86844551D01*
X130724501Y-86690603D01*
X130827133Y-86587971D01*
X130981081Y-86536656D01*
X131083712Y-86536656D01*
X131237659Y-86587971D01*
X131494238Y-86741919D01*
X131648185Y-86793234D01*
X131750817Y-86793234D01*
X131904764Y-86741918D01*
X132007395Y-86639287D01*
X132058711Y-86485340D01*
X132058711Y-86382708D01*
X132007395Y-86228762D01*
X131750816Y-85972182D01*
X131545553Y-85869551D01*
X131237659Y-85459025D02*
X129903449Y-86280077D01*
X130467923Y-85305077D01*
X129492923Y-85869551D01*
X130313975Y-84535341D01*
X128261345Y-84637973D02*
X128877134Y-85253762D01*
X128569240Y-84945868D02*
X129646871Y-83868237D01*
X129595555Y-84124816D01*
X129595554Y-84330078D01*
X129646871Y-84484025D01*
M02*
