M48
;DRILL file {KiCad 4.0.2-stable} date 14.06.2016 13:50:11
;FORMAT={-:-/ absolute / metric / decimal}
FMAT,2
METRIC,TZ
T1C0.300
T2C0.900
T3C0.998
%
G90
G05
M71
T1
X126.428Y-101.727
X126.682Y-85.534
X128.27Y-78.74
X130.429Y-105.41
X131.318Y-101.727
X135.128Y-84.074
X136.715Y-101.727
X136.906Y-111.76
X137.414Y-100.838
X137.414Y-105.346
X137.986Y-87.63
X138.049Y-99.441
X139.065Y-89.916
X139.065Y-97.663
X139.827Y-98.552
X139.827Y-99.695
X140.081Y-106.807
X141.097Y-86.233
X141.097Y-94.107
X141.986Y-94.996
X142.24Y-87.566
X142.494Y-101.981
X142.621Y-108.331
X143.192Y-88.646
X143.637Y-102.87
X144.145Y-109.855
X144.272Y-94.996
X144.526Y-121.031
X144.907Y-110.744
X145.542Y-94.996
X146.113Y-96.012
X146.558Y-89.027
X146.812Y-100.203
X148.082Y-96.266
X149.225Y-96.266
X150.368Y-114.808
X151.384Y-111.252
X151.511Y-107.95
X152.4Y-106.172
X152.527Y-104.203
X152.654Y-98.552
X152.781Y-107.696
X153.099Y-93.789
X153.797Y-103.759
X154.813Y-101.092
X155.956Y-101.6
X155.956Y-114.808
X157.226Y-101.6
X157.8Y-105.6
X159.385Y-105.664
X160.401Y-110.363
X160.782Y-92.329
X161.036Y-101.092
X163.957Y-91.821
X163.957Y-93.726
X164.338Y-96.774
X164.846Y-102.87
X168.275Y-89.916
T2
X131.49Y-92.411
X133.286Y-90.614
X153.997Y-89.172
X155.793Y-87.376
X155.793Y-90.968
X157.589Y-85.58
X157.589Y-89.172
X159.385Y-87.376
T3
X130.186Y-82.053
X131.953Y-83.82
X133.72Y-85.587
X143.256Y-119.253
X145.796Y-119.253
T0
M30
