G04 #@! TF.FileFunction,Soldermask,Bot*
%FSLAX46Y46*%
G04 Gerber Fmt 4.6, Leading zero omitted, Abs format (unit mm)*
G04 Created by KiCad (PCBNEW 4.0.2-stable) date 14.06.2016 13:49:58*
%MOMM*%
G01*
G04 APERTURE LIST*
%ADD10C,0.100000*%
%ADD11R,1.900000X1.650000*%
%ADD12R,1.500000X1.100000*%
%ADD13O,1.906220X3.414980*%
%ADD14R,2.700000X0.900000*%
%ADD15R,2.900000X2.400000*%
%ADD16C,1.300000*%
%ADD17C,1.900000*%
%ADD18R,1.900000X1.700000*%
%ADD19R,1.598880X1.598880*%
%ADD20C,1.900000*%
%ADD21C,2.398980*%
%ADD22C,2.900000*%
G04 APERTURE END LIST*
D10*
D11*
X134219000Y-97409000D03*
X131719000Y-97409000D03*
D12*
X131896000Y-107249000D03*
X131896000Y-106299000D03*
X131896000Y-105349000D03*
X134296000Y-105349000D03*
X134296000Y-107249000D03*
D13*
X145796000Y-119253000D03*
X143256000Y-119253000D03*
D14*
X127402000Y-95072000D03*
X127402000Y-94272000D03*
X127402000Y-93472000D03*
X127402000Y-92672000D03*
X127402000Y-91872000D03*
D15*
X127302000Y-97922000D03*
X121802000Y-97922000D03*
X127302000Y-89022000D03*
X121802000Y-89022000D03*
D16*
X124802000Y-95672000D03*
X124802000Y-91272000D03*
D10*
G36*
X160728503Y-87376000D02*
X159385000Y-88719503D01*
X158041497Y-87376000D01*
X159385000Y-86032497D01*
X160728503Y-87376000D01*
X160728503Y-87376000D01*
G37*
D17*
X157588949Y-85579949D03*
X157588949Y-89172051D03*
X155792898Y-87376000D03*
X155792898Y-90968102D03*
X153996846Y-89172051D03*
D18*
X131746000Y-99949000D03*
X134446000Y-99949000D03*
X132254000Y-109347000D03*
X134954000Y-109347000D03*
D19*
X134145020Y-103251000D03*
X132046980Y-103251000D03*
D10*
G36*
X134630003Y-90614500D02*
X133286500Y-91958003D01*
X131942997Y-90614500D01*
X133286500Y-89270997D01*
X134630003Y-90614500D01*
X134630003Y-90614500D01*
G37*
D20*
X131490449Y-92410551D02*
X131490449Y-92410551D01*
D21*
X130185686Y-82052686D03*
X131953000Y-83820000D03*
X133720314Y-85587314D03*
D22*
X145796000Y-83566000D03*
M02*
