G04 #@! TF.FileFunction,Profile,NP*
%FSLAX46Y46*%
G04 Gerber Fmt 4.6, Leading zero omitted, Abs format (unit mm)*
G04 Created by KiCad (PCBNEW 4.0.2-stable) date 14.06.2016 13:49:58*
%MOMM*%
G01*
G04 APERTURE LIST*
%ADD10C,0.100000*%
G04 APERTURE END LIST*
D10*
X130042295Y-74707171D02*
X130439170Y-74668586D01*
X129648176Y-74756781D02*
X130042295Y-74707171D01*
X129256813Y-74820170D02*
X129648176Y-74756781D01*
X128868206Y-74900097D02*
X129256813Y-74820170D01*
X128485112Y-74991047D02*
X128868206Y-74900097D01*
X128104773Y-75093022D02*
X128485112Y-74991047D01*
X127727191Y-75208777D02*
X128104773Y-75093022D01*
X127352364Y-75335557D02*
X127727191Y-75208777D01*
X126985806Y-75476117D02*
X127352364Y-75335557D01*
X126619248Y-75624945D02*
X126985806Y-75476117D01*
X126260958Y-75787553D02*
X126619248Y-75624945D01*
X125905424Y-75961186D02*
X126260958Y-75787553D01*
X125555403Y-76143087D02*
X125905424Y-75961186D01*
X125210893Y-76338768D02*
X125555403Y-76143087D01*
X124871896Y-76542718D02*
X125210893Y-76338768D01*
X124538410Y-76754936D02*
X124871896Y-76542718D01*
X124210437Y-76978178D02*
X124538410Y-76754936D01*
X123890732Y-77209689D02*
X124210437Y-76978178D01*
X123573784Y-77452223D02*
X123890732Y-77209689D01*
X123267859Y-77700270D02*
X123573784Y-77452223D01*
X122964691Y-77959341D02*
X123267859Y-77700270D01*
X122669791Y-78223925D02*
X122964691Y-77959341D01*
X122383159Y-78496776D02*
X122669791Y-78223925D01*
X122104795Y-78777896D02*
X122383159Y-78496776D01*
X121831943Y-79064528D02*
X122104795Y-78777896D01*
X121567360Y-79359428D02*
X121831943Y-79064528D01*
X121311045Y-79659841D02*
X121567360Y-79359428D01*
X121065754Y-79968521D02*
X121311045Y-79659841D01*
X120825975Y-80282714D02*
X121065754Y-79968521D01*
X120398784Y-80880782D02*
X120825975Y-80282714D01*
X120004665Y-81498143D02*
X120398784Y-80880782D01*
X119635350Y-82132041D02*
X120004665Y-81498143D01*
X119299109Y-82779719D02*
X119635350Y-82132041D01*
X118987673Y-83443933D02*
X119299109Y-82779719D01*
X118703797Y-84119172D02*
X118987673Y-83443933D01*
X118447482Y-84805435D02*
X118703797Y-84119172D01*
X118113996Y-85849988D02*
X118447482Y-84805435D01*
X117835633Y-86916590D02*
X118113996Y-85849988D01*
X117612390Y-87994216D02*
X117835633Y-86916590D01*
X117441514Y-89080110D02*
X117612390Y-87994216D01*
X117323002Y-90174272D02*
X117441514Y-89080110D01*
X117323002Y-93456759D02*
X117323002Y-90174272D01*
X117391904Y-94079632D02*
X117323002Y-93456759D01*
X117474587Y-94699749D02*
X117391904Y-94079632D01*
X117576561Y-95317110D02*
X117474587Y-94699749D01*
X117692317Y-95928959D02*
X117576561Y-95317110D01*
X117824608Y-96538052D02*
X117692317Y-95928959D01*
X117970680Y-97141633D02*
X117824608Y-96538052D01*
X118133289Y-97739702D02*
X117970680Y-97141633D01*
X118309678Y-98337770D02*
X118133289Y-97739702D01*
X118499847Y-98927571D02*
X118309678Y-98337770D01*
X118703797Y-99514615D02*
X118499847Y-98927571D01*
X118918771Y-100096147D02*
X118703797Y-99514615D01*
X119147525Y-100674923D02*
X118918771Y-100096147D01*
X119390060Y-101248187D02*
X119147525Y-100674923D01*
X119643619Y-101815939D02*
X119390060Y-101248187D01*
X119908202Y-102380934D02*
X119643619Y-101815939D01*
X120181054Y-102939729D02*
X119908202Y-102380934D01*
X120467686Y-103494389D02*
X120181054Y-102939729D01*
X120765342Y-104042159D02*
X120467686Y-103494389D01*
X121068510Y-104585795D02*
X120765342Y-104042159D01*
X121385459Y-105125986D02*
X121068510Y-104585795D01*
X121707920Y-105660665D02*
X121385459Y-105125986D01*
X122380403Y-106713486D02*
X121707920Y-105660665D01*
X123080446Y-107744259D02*
X122380403Y-106713486D01*
X123810806Y-108752983D02*
X123080446Y-107744259D01*
X124563215Y-109739658D02*
X123810806Y-108752983D01*
X125180576Y-110511360D02*
X124563215Y-109739658D01*
X125811718Y-111272037D02*
X125180576Y-110511360D01*
X126453883Y-112021689D02*
X125811718Y-111272037D01*
X127104317Y-112760318D02*
X126453883Y-112021689D01*
X127765776Y-113493434D02*
X127104317Y-112760318D01*
X128438258Y-114215526D02*
X127765776Y-113493434D01*
X129119009Y-114926594D02*
X128438258Y-114215526D01*
X129808028Y-115626637D02*
X129119009Y-114926594D01*
X130505316Y-116321169D02*
X129808028Y-115626637D01*
X131213627Y-117010188D02*
X130505316Y-116321169D01*
X131927451Y-117688183D02*
X131213627Y-117010188D01*
X132649543Y-118355153D02*
X131927451Y-117688183D01*
X133379903Y-119016611D02*
X132649543Y-118355153D01*
X134862673Y-120322992D02*
X133379903Y-119016611D01*
X136367490Y-121596299D02*
X134862673Y-120322992D01*
X137897113Y-122842045D02*
X136367490Y-121596299D01*
X139446028Y-124065743D02*
X137897113Y-122842045D01*
X141799717Y-125862705D02*
X139446028Y-124065743D01*
X145785003Y-128762097D02*
X141799717Y-125862705D01*
X153281531Y-123161750D02*
X145785003Y-128762097D01*
X155045420Y-121717566D02*
X153281531Y-123161750D01*
X157928276Y-119242610D02*
X155045420Y-121717566D01*
X159614995Y-117704719D02*
X157928276Y-119242610D01*
X161263128Y-116128243D02*
X159614995Y-117704719D01*
X162337998Y-115053374D02*
X161263128Y-116128243D01*
X163385307Y-113950943D02*
X162337998Y-115053374D01*
X164410567Y-112831976D02*
X163385307Y-113950943D01*
X165413779Y-111690960D02*
X164410567Y-112831976D01*
X166383918Y-110522384D02*
X165413779Y-111690960D01*
X166857963Y-109927071D02*
X166383918Y-110522384D01*
X167320984Y-109326247D02*
X166857963Y-109927071D01*
X167778493Y-108719910D02*
X167320984Y-109326247D01*
X168230489Y-108102549D02*
X167778493Y-108719910D01*
X168671462Y-107479676D02*
X168230489Y-108102549D01*
X169536870Y-106178808D02*
X168671462Y-107479676D01*
X170352668Y-104839354D02*
X169536870Y-106178808D01*
X170865298Y-103927782D02*
X170352668Y-104839354D01*
X171355880Y-103001740D02*
X170865298Y-103927782D01*
X171813389Y-102061229D02*
X171355880Y-103001740D01*
X172237824Y-101107627D02*
X171813389Y-102061229D01*
X172634699Y-100137488D02*
X172237824Y-101107627D01*
X172987477Y-99159081D02*
X172634699Y-100137488D01*
X173152842Y-98662987D02*
X172987477Y-99159081D01*
X173307182Y-98164137D02*
X173152842Y-98662987D01*
X173450498Y-97665288D02*
X173307182Y-98164137D01*
X173588302Y-97160926D02*
X173450498Y-97665288D01*
X173709569Y-96653808D02*
X173588302Y-97160926D01*
X173825324Y-96143933D02*
X173709569Y-96653808D01*
X173924543Y-95631303D02*
X173825324Y-96143933D01*
X174012738Y-95115917D02*
X173924543Y-95631303D01*
X174095420Y-94597775D02*
X174012738Y-95115917D01*
X174161566Y-94079632D02*
X174095420Y-94597775D01*
X174211175Y-93555978D02*
X174161566Y-94079632D01*
X174211175Y-89953786D02*
X174211175Y-93555978D01*
X174122981Y-89132475D02*
X174211175Y-89953786D01*
X174001713Y-88311164D02*
X174122981Y-89132475D01*
X173852885Y-87495366D02*
X174001713Y-88311164D01*
X173670984Y-86685079D02*
X173852885Y-87495366D01*
X173456010Y-85880305D02*
X173670984Y-86685079D01*
X173207963Y-85086555D02*
X173456010Y-85880305D01*
X172926843Y-84306585D02*
X173207963Y-85086555D01*
X172612651Y-83540396D02*
X172926843Y-84306585D01*
X172259873Y-82787987D02*
X172612651Y-83540396D01*
X172072460Y-82418673D02*
X172259873Y-82787987D01*
X171879534Y-82054871D02*
X172072460Y-82418673D01*
X171670073Y-81696581D02*
X171879534Y-82054871D01*
X171455099Y-81343803D02*
X171670073Y-81696581D01*
X171234613Y-80996538D02*
X171455099Y-81343803D01*
X170997590Y-80652028D02*
X171234613Y-80996538D01*
X170755055Y-80318543D02*
X170997590Y-80652028D01*
X170501496Y-79987814D02*
X170755055Y-80318543D01*
X170242425Y-79665353D02*
X170501496Y-79987814D01*
X169972330Y-79348404D02*
X170242425Y-79665353D01*
X169691210Y-79039723D02*
X169972330Y-79348404D01*
X169222677Y-78551898D02*
X169691210Y-79039723D01*
X168726583Y-78083365D02*
X169222677Y-78551898D01*
X168213953Y-77639637D02*
X168726583Y-78083365D01*
X167679274Y-77220713D02*
X168213953Y-77639637D01*
X167122547Y-76826594D02*
X167679274Y-77220713D01*
X166549283Y-76460036D02*
X167122547Y-76826594D01*
X165959482Y-76123795D02*
X166549283Y-76460036D01*
X165353146Y-75817870D02*
X165959482Y-76123795D01*
X164730272Y-75542262D02*
X165353146Y-75817870D01*
X164096375Y-75302484D02*
X164730272Y-75542262D01*
X163451453Y-75095778D02*
X164096375Y-75302484D01*
X162795507Y-74924901D02*
X163451453Y-75095778D01*
X162128536Y-74792610D02*
X162795507Y-74924901D01*
X161792295Y-74740244D02*
X162128536Y-74792610D01*
X161450541Y-74698903D02*
X161792295Y-74740244D01*
X161114300Y-74668586D02*
X161450541Y-74698903D01*
X159366948Y-74580392D02*
X161114300Y-74668586D01*
X157966861Y-74599684D02*
X159366948Y-74580392D01*
X156914040Y-74682367D02*
X157966861Y-74599684D01*
X156219508Y-74767805D02*
X156914040Y-74682367D01*
X155530489Y-74883560D02*
X156219508Y-74767805D01*
X154846982Y-75029632D02*
X155530489Y-74883560D01*
X154168988Y-75208777D02*
X154846982Y-75029632D01*
X153507529Y-75423751D02*
X154168988Y-75208777D01*
X152857095Y-75671798D02*
X153507529Y-75423751D01*
X152531878Y-75809602D02*
X152857095Y-75671798D01*
X152217686Y-75958430D02*
X152531878Y-75809602D01*
X151903493Y-76118282D02*
X152217686Y-75958430D01*
X151594812Y-76286403D02*
X151903493Y-76118282D01*
X151291644Y-76465548D02*
X151594812Y-76286403D01*
X150415212Y-77033300D02*
X151291644Y-76465548D01*
X149191514Y-77997926D02*
X150415212Y-77033300D01*
X145785003Y-81569801D02*
X149191514Y-77997926D01*
X142698198Y-78284558D02*
X145785003Y-81569801D01*
X141623328Y-77383321D02*
X142698198Y-78284558D01*
X140705554Y-76732887D02*
X141623328Y-77383321D01*
X139977950Y-76297427D02*
X140705554Y-76732887D01*
X139729903Y-76165136D02*
X139977950Y-76297427D01*
X139137347Y-75864723D02*
X139729903Y-76165136D01*
X138533766Y-75602896D02*
X139137347Y-75864723D01*
X137919161Y-75374142D02*
X138533766Y-75602896D01*
X137293532Y-75178460D02*
X137919161Y-75374142D01*
X136659634Y-75013096D02*
X137293532Y-75178460D01*
X136017469Y-74878048D02*
X136659634Y-75013096D01*
X135041817Y-74726464D02*
X136017469Y-74878048D01*
X134057898Y-74630001D02*
X135041817Y-74726464D01*
X132737738Y-74580392D02*
X134057898Y-74630001D01*
X130764387Y-74643782D02*
X132737738Y-74580392D01*
X130439170Y-74668586D02*
X130764387Y-74643782D01*
M02*
