G04 #@! TF.FileFunction,Soldermask,Top*
%FSLAX46Y46*%
G04 Gerber Fmt 4.6, Leading zero omitted, Abs format (unit mm)*
G04 Created by KiCad (PCBNEW 4.0.2-stable) date 15.06.2016 11:47:53*
%MOMM*%
G01*
G04 APERTURE LIST*
%ADD10C,0.100000*%
%ADD11R,1.200100X1.200100*%
%ADD12R,1.900000X1.650000*%
%ADD13O,1.906220X3.414980*%
%ADD14C,1.300000*%
%ADD15C,1.900000*%
%ADD16R,1.900000X1.700000*%
%ADD17R,1.700000X1.900000*%
%ADD18R,1.598880X1.598880*%
%ADD19C,1.900000*%
%ADD20C,2.398980*%
%ADD21C,2.900000*%
G04 APERTURE END LIST*
D10*
G36*
X140979765Y-104052544D02*
X140272658Y-103345437D01*
X141404029Y-102214066D01*
X142111136Y-102921173D01*
X140979765Y-104052544D01*
X140979765Y-104052544D01*
G37*
G36*
X141545451Y-104618229D02*
X140838344Y-103911122D01*
X141969715Y-102779751D01*
X142676822Y-103486858D01*
X141545451Y-104618229D01*
X141545451Y-104618229D01*
G37*
G36*
X142111136Y-105183915D02*
X141404029Y-104476808D01*
X142535400Y-103345437D01*
X143242507Y-104052544D01*
X142111136Y-105183915D01*
X142111136Y-105183915D01*
G37*
G36*
X142676821Y-105749600D02*
X141969714Y-105042493D01*
X143101085Y-103911122D01*
X143808192Y-104618229D01*
X142676821Y-105749600D01*
X142676821Y-105749600D01*
G37*
G36*
X143242507Y-106315286D02*
X142535400Y-105608179D01*
X143666771Y-104476808D01*
X144373878Y-105183915D01*
X143242507Y-106315286D01*
X143242507Y-106315286D01*
G37*
G36*
X143808192Y-106880971D02*
X143101085Y-106173864D01*
X144232456Y-105042493D01*
X144939563Y-105749600D01*
X143808192Y-106880971D01*
X143808192Y-106880971D01*
G37*
G36*
X144373878Y-107446656D02*
X143666771Y-106739549D01*
X144798142Y-105608178D01*
X145505249Y-106315285D01*
X144373878Y-107446656D01*
X144373878Y-107446656D01*
G37*
G36*
X144939563Y-108012342D02*
X144232456Y-107305235D01*
X145363827Y-106173864D01*
X146070934Y-106880971D01*
X144939563Y-108012342D01*
X144939563Y-108012342D01*
G37*
G36*
X148121544Y-107305235D02*
X147414437Y-108012342D01*
X146283066Y-106880971D01*
X146990173Y-106173864D01*
X148121544Y-107305235D01*
X148121544Y-107305235D01*
G37*
G36*
X148687229Y-106739549D02*
X147980122Y-107446656D01*
X146848751Y-106315285D01*
X147555858Y-105608178D01*
X148687229Y-106739549D01*
X148687229Y-106739549D01*
G37*
G36*
X149252915Y-106173864D02*
X148545808Y-106880971D01*
X147414437Y-105749600D01*
X148121544Y-105042493D01*
X149252915Y-106173864D01*
X149252915Y-106173864D01*
G37*
G36*
X149818600Y-105608179D02*
X149111493Y-106315286D01*
X147980122Y-105183915D01*
X148687229Y-104476808D01*
X149818600Y-105608179D01*
X149818600Y-105608179D01*
G37*
G36*
X150384286Y-105042493D02*
X149677179Y-105749600D01*
X148545808Y-104618229D01*
X149252915Y-103911122D01*
X150384286Y-105042493D01*
X150384286Y-105042493D01*
G37*
G36*
X150949971Y-104476808D02*
X150242864Y-105183915D01*
X149111493Y-104052544D01*
X149818600Y-103345437D01*
X150949971Y-104476808D01*
X150949971Y-104476808D01*
G37*
G36*
X151515656Y-103911122D02*
X150808549Y-104618229D01*
X149677178Y-103486858D01*
X150384285Y-102779751D01*
X151515656Y-103911122D01*
X151515656Y-103911122D01*
G37*
G36*
X152081342Y-103345437D02*
X151374235Y-104052544D01*
X150242864Y-102921173D01*
X150949971Y-102214066D01*
X152081342Y-103345437D01*
X152081342Y-103345437D01*
G37*
G36*
X150949971Y-102001934D02*
X150242864Y-101294827D01*
X151374235Y-100163456D01*
X152081342Y-100870563D01*
X150949971Y-102001934D01*
X150949971Y-102001934D01*
G37*
G36*
X150384285Y-101436249D02*
X149677178Y-100729142D01*
X150808549Y-99597771D01*
X151515656Y-100304878D01*
X150384285Y-101436249D01*
X150384285Y-101436249D01*
G37*
G36*
X149818600Y-100870563D02*
X149111493Y-100163456D01*
X150242864Y-99032085D01*
X150949971Y-99739192D01*
X149818600Y-100870563D01*
X149818600Y-100870563D01*
G37*
G36*
X149252915Y-100304878D02*
X148545808Y-99597771D01*
X149677179Y-98466400D01*
X150384286Y-99173507D01*
X149252915Y-100304878D01*
X149252915Y-100304878D01*
G37*
G36*
X148687229Y-99739192D02*
X147980122Y-99032085D01*
X149111493Y-97900714D01*
X149818600Y-98607821D01*
X148687229Y-99739192D01*
X148687229Y-99739192D01*
G37*
G36*
X148121544Y-99173507D02*
X147414437Y-98466400D01*
X148545808Y-97335029D01*
X149252915Y-98042136D01*
X148121544Y-99173507D01*
X148121544Y-99173507D01*
G37*
G36*
X147555858Y-98607822D02*
X146848751Y-97900715D01*
X147980122Y-96769344D01*
X148687229Y-97476451D01*
X147555858Y-98607822D01*
X147555858Y-98607822D01*
G37*
G36*
X146990173Y-98042136D02*
X146283066Y-97335029D01*
X147414437Y-96203658D01*
X148121544Y-96910765D01*
X146990173Y-98042136D01*
X146990173Y-98042136D01*
G37*
G36*
X146070934Y-97335029D02*
X145363827Y-98042136D01*
X144232456Y-96910765D01*
X144939563Y-96203658D01*
X146070934Y-97335029D01*
X146070934Y-97335029D01*
G37*
G36*
X145505249Y-97900715D02*
X144798142Y-98607822D01*
X143666771Y-97476451D01*
X144373878Y-96769344D01*
X145505249Y-97900715D01*
X145505249Y-97900715D01*
G37*
G36*
X144939563Y-98466400D02*
X144232456Y-99173507D01*
X143101085Y-98042136D01*
X143808192Y-97335029D01*
X144939563Y-98466400D01*
X144939563Y-98466400D01*
G37*
G36*
X144373878Y-99032085D02*
X143666771Y-99739192D01*
X142535400Y-98607821D01*
X143242507Y-97900714D01*
X144373878Y-99032085D01*
X144373878Y-99032085D01*
G37*
G36*
X143808192Y-99597771D02*
X143101085Y-100304878D01*
X141969714Y-99173507D01*
X142676821Y-98466400D01*
X143808192Y-99597771D01*
X143808192Y-99597771D01*
G37*
G36*
X143242507Y-100163456D02*
X142535400Y-100870563D01*
X141404029Y-99739192D01*
X142111136Y-99032085D01*
X143242507Y-100163456D01*
X143242507Y-100163456D01*
G37*
G36*
X142676822Y-100729142D02*
X141969715Y-101436249D01*
X140838344Y-100304878D01*
X141545451Y-99597771D01*
X142676822Y-100729142D01*
X142676822Y-100729142D01*
G37*
G36*
X142111136Y-101294827D02*
X141404029Y-102001934D01*
X140272658Y-100870563D01*
X140979765Y-100163456D01*
X142111136Y-101294827D01*
X142111136Y-101294827D01*
G37*
D11*
X153939240Y-111572000D03*
X153939240Y-113472000D03*
X155938220Y-112522000D03*
D12*
X152801000Y-96012000D03*
X155301000Y-96012000D03*
X139045000Y-96012000D03*
X136545000Y-96012000D03*
D13*
X145796000Y-119253000D03*
X143256000Y-119253000D03*
D14*
X124802000Y-95672000D03*
X124802000Y-91272000D03*
D10*
G36*
X160728503Y-87376000D02*
X159385000Y-88719503D01*
X158041497Y-87376000D01*
X159385000Y-86032497D01*
X160728503Y-87376000D01*
X160728503Y-87376000D01*
G37*
D15*
X157588949Y-85579949D03*
X157588949Y-89172051D03*
X155792898Y-87376000D03*
X155792898Y-90968102D03*
X153996846Y-89172051D03*
D16*
X139018000Y-93472000D03*
X136318000Y-93472000D03*
X157687000Y-109220000D03*
X154987000Y-109220000D03*
D17*
X140843000Y-120857000D03*
X140843000Y-118157000D03*
X133731000Y-114634000D03*
X133731000Y-111934000D03*
X128651000Y-108157000D03*
X128651000Y-105457000D03*
X124714000Y-101807000D03*
X124714000Y-99107000D03*
X122174000Y-94314000D03*
X122174000Y-91614000D03*
X123317000Y-88472000D03*
X123317000Y-85772000D03*
X126492000Y-83011000D03*
X126492000Y-80311000D03*
X132715000Y-77009000D03*
X132715000Y-79709000D03*
X135255000Y-77009000D03*
X135255000Y-79709000D03*
X139954000Y-81708000D03*
X139954000Y-84408000D03*
X151765000Y-81708000D03*
X151765000Y-84408000D03*
X156464000Y-77009000D03*
X156464000Y-79709000D03*
X159004000Y-77009000D03*
X159004000Y-79709000D03*
X165100000Y-83011000D03*
X165100000Y-80311000D03*
X168402000Y-88345000D03*
X168402000Y-85645000D03*
X169418000Y-94314000D03*
X169418000Y-91614000D03*
X166878000Y-101934000D03*
X166878000Y-99234000D03*
X162941000Y-108284000D03*
X162941000Y-105584000D03*
X157861000Y-114634000D03*
X157861000Y-111934000D03*
X151511000Y-120730000D03*
X151511000Y-118030000D03*
D18*
X146177000Y-125509020D03*
X146177000Y-123410980D03*
X138303000Y-119921020D03*
X138303000Y-117822980D03*
X131191000Y-114079020D03*
X131191000Y-111980980D03*
X126111000Y-107729020D03*
X126111000Y-105630980D03*
X122174000Y-101506020D03*
X122174000Y-99407980D03*
X119634000Y-93759020D03*
X119634000Y-91660980D03*
X120777000Y-87663020D03*
X120777000Y-85564980D03*
X123952000Y-82202020D03*
X123952000Y-80103980D03*
X130302000Y-78900020D03*
X130302000Y-76801980D03*
X137668000Y-79916020D03*
X137668000Y-77817980D03*
X142367000Y-84615020D03*
X142367000Y-82516980D03*
X149225000Y-84615020D03*
X149225000Y-82516980D03*
X154051000Y-79916020D03*
X154051000Y-77817980D03*
X161417000Y-78900020D03*
X161417000Y-76801980D03*
X167640000Y-82202020D03*
X167640000Y-80103980D03*
X170942000Y-87663020D03*
X170942000Y-85564980D03*
X171958000Y-93759020D03*
X171958000Y-91660980D03*
X169418000Y-101506020D03*
X169418000Y-99407980D03*
X165481000Y-107729020D03*
X165481000Y-105630980D03*
X160401000Y-114079020D03*
X160401000Y-111980980D03*
X154051000Y-119921020D03*
X154051000Y-117822980D03*
D10*
G36*
X134630003Y-90614500D02*
X133286500Y-91958003D01*
X131942997Y-90614500D01*
X133286500Y-89270997D01*
X134630003Y-90614500D01*
X134630003Y-90614500D01*
G37*
D19*
X131490449Y-92410551D02*
X131490449Y-92410551D01*
D17*
X148590000Y-124032000D03*
X148590000Y-121332000D03*
D20*
X130185686Y-82052686D03*
X131953000Y-83820000D03*
X133720314Y-85587314D03*
D21*
X145796000Y-83566000D03*
M02*
